<?xml version="1.0" encoding="UTF-8"?>
<svg id="Capa_2" xmlns="http://www.w3.org/2000/svg" xmlns:xlink="http://www.w3.org/1999/xlink" version="1.1" viewBox="0 0 1200 1000">
  <!-- Generator: Adobe Illustrator 29.3.1, SVG Export Plug-In . SVG Version: 2.1.0 Build 151)  -->
  <defs>
    <clipPath id="clippath">
      <path d="M553.1,350.5l-4.5-8.8c4-2,6.7-3.1,8.2-3.5.2,0,.5-.1.8-.2,1.4-.2,3.4-.1,5.8.2l4.5,8.8c-2.5-.3-4.4-.4-5.8-.2-.3,0-.5,0-.8.2-1.5.4-4.2,1.5-8.2,3.5Z" style="fill: none;"/>
    </clipPath>
    <clipPath id="clippath-1">
      <path d="M573.8,347.1l-4.5-8.8c.9,0,1.8,0,2.7-.2,1.3-.2,2.5-.5,3.7-1,6.5-2.4,13.5-10.5,21-24.2l4.5,8.8c-7.5,13.8-14.5,21.8-21,24.2-1.2.5-2.5.8-3.7,1s-1.8.2-2.7.2Z" style="fill: none;"/>
    </clipPath>
    <clipPath id="clippath-2">
      <path d="M571.1,307.7l4.5,8.8c0,.2.2.4.3.6.8,2.1.5,5.7-.8,10.7-1.3,5-3.7,11.4-7.2,19.1l-4.5-8.8c3.5-7.8,5.9-14.1,7.2-19.1,1.3-5,1.6-8.6.8-10.7,0-.2-.2-.4-.3-.6Z" style="fill: none;"/>
    </clipPath>
    <clipPath id="clippath-3">
      <path d="M581.2,288.6l4.5,8.8c-.4-.8-.8-1.3-1.3-1.5-.4-.2-.9-.3-1.6-.2s-1.1.2-1.7.5c-2.5.9-4.7,2.3-6.8,4.3-2.1,1.9-4,4.3-5.9,7-1.9,2.7-4.2,6.4-7.1,11-2.8,4.6-5.4,8.6-7.6,12.1l-4.5-8.8c2.2-3.4,4.7-7.4,7.6-12.1,2.8-4.6,5.2-8.3,7.1-11,1.9-2.7,3.8-5,5.9-7,2.1-1.9,4.3-3.4,6.8-4.3.7-.2,1.2-.4,1.7-.5s1.2,0,1.6.2c.4.2.9.8,1.3,1.5Z" style="fill: none;"/>
    </clipPath>
    <clipPath id="clippath-4">
      <path d="M537.9,408.2l-4.5-8.8c-.3-.6-.6-1.3-.9-2.1-1.3-3.6-1.9-7.7-1.8-12.2,0-4.5.6-8.9,1.5-13.2.9-4.3,2-8.7,3.3-13.3,1.3-4.5,2.2-7.9,2.6-10,3.5-18.2,5.9-33.5,7.1-45.8l4.5,8.8c-1.2,12.3-3.6,27.6-7.1,45.8-.4,2.2-1.3,5.5-2.6,10-1.3,4.6-2.4,9-3.3,13.3-.9,4.3-1.4,8.7-1.5,13.2,0,4.5.5,8.5,1.8,12.2.3.8.6,1.5.9,2.1Z" style="fill: none;"/>
    </clipPath>
    <clipPath id="clippath-5">
      <path d="M562.3,269.6l4.5,8.8c-.4-.9-1.2-1.2-2.3-1s-.7.2-1.1.3c-3.8,1.4-6.7,3.5-8.6,6.2-1.9,2.7-3.7,6.9-5.5,12.4-1.8,5.6-4.2,13.1-7.3,22.5-3.1,9.5-7,19.8-11.9,31l-4.5-8.8c4.9-11.2,8.9-21.6,11.9-31,3.1-9.5,5.5-17,7.3-22.5,1.8-5.6,3.6-9.7,5.5-12.4,1.9-2.7,4.8-4.8,8.6-6.2.4-.2.8-.3,1.1-.3,1.1-.2,1.9.2,2.3,1Z" style="fill: none;"/>
    </clipPath>
    <clipPath id="clippath-6">
      <path d="M468.3,380.8l-4.5-8.8c.5,1,1.1,1.8,1.8,2.4.8.7,1.7,1,2.6.9s.4,0,.6-.1c.6-.2,1.6-1,2.9-2.4l4.5,8.8c-1.3,1.3-2.3,2.1-2.9,2.4-.2,0-.4.1-.6.1-.9.1-1.7-.2-2.6-.9-.7-.6-1.3-1.4-1.8-2.4Z" style="fill: none;"/>
    </clipPath>
    <clipPath id="clippath-7">
      <path d="M504.4,365l-4.5-8.8c1.2,2.4,3.1,3.5,5.5,3.1s1.2-.2,1.8-.5c3.9-1.4,8.8-7.3,14.6-17.6l4.5,8.8c-5.8,10.3-10.7,16.1-14.6,17.6-.6.2-1.2.4-1.8.5-2.5.4-4.3-.7-5.5-3.1Z" style="fill: none;"/>
    </clipPath>
    <clipPath id="clippath-8">
      <path d="M497.9,385.7l-4.5-8.8c-.4-.7-.7-1.5-1-2.4-1.6-4.3-2.2-11.2-2-20.6l4.5,8.8c-.3,9.4.4,16.3,2,20.6.3.9.7,1.7,1,2.4Z" style="fill: none;"/>
    </clipPath>
    <clipPath id="clippath-9">
      <path d="M476.1,381.6l-4.5-8.8c4.7-5.6,8.5-12,11.4-19.3l4.5,8.8c-2.9,7.3-6.7,13.7-11.4,19.3Z" style="fill: none;"/>
    </clipPath>
    <clipPath id="clippath-10">
      <path d="M457.4,383.6l-4.5-8.8c-.5-1-1-2.1-1.4-3.3-.9-2.6-1.4-4.8-1.6-6.7-.1-1.9.2-4.1,1-6.4.8-2.3,2.3-5.6,4.4-9.7l4.5,8.8c-2.1,4.1-3.6,7.4-4.4,9.7-.8,2.3-1.2,4.5-1,6.4.1,1.9.6,4.2,1.6,6.7.4,1.1.9,2.2,1.4,3.3Z" style="fill: none;"/>
    </clipPath>
    <clipPath id="clippath-11">
      <path d="M487.5,362.4l-4.5-8.8c2.9-7.3,6.1-16.8,9.6-28.8l4.5,8.8c-3.5,11.9-6.7,21.5-9.6,28.8Z" style="fill: none;"/>
    </clipPath>
    <clipPath id="clippath-12">
      <path d="M502.8,328.5l4.5,8.8c-.3-.5-.6-1-1.1-1.5-.6-.7-1.5-1.7-2.6-2.8-1.1-1.2-2-2.1-2.7-2.8l-4.5-8.8c.7.7,1.6,1.7,2.7,2.8,1.1,1.1,2,2.1,2.6,2.8.5.5.8,1.1,1.1,1.5Z" style="fill: none;"/>
    </clipPath>
    <clipPath id="clippath-13">
      <path d="M500.1,315.2l4.5,8.8c-.3-.6-.9-1.3-1.8-2.2-1-1-2.2-1.9-3.6-2.5-1-.4-2-.6-2.9-.5-.3,0-.6.1-.9.2-4.4,1.6-9.9,5.7-16.7,12.4-6.7,6.6-13,15.3-18.8,26l-4.5-8.8c5.8-10.7,12.1-19.4,18.8-26,6.7-6.6,12.3-10.7,16.7-12.4.3-.1.6-.2.9-.2.9-.1,1.9,0,2.9.5,1.4.6,2.6,1.4,3.6,2.5.9.9,1.5,1.6,1.8,2.2Z" style="fill: none;"/>
    </clipPath>
    <clipPath id="clippath-14">
      <path d="M323.8,443l-4.5-8.8c2,3.9,4.3,7.1,6.8,9.8,4.1,4.2,8.8,6.8,14.2,7.9,3.1.6,6.4.7,9.8.2s5-1,7.6-2c13.5-4.9,26.9-15.7,40.3-32.2,13.4-16.5,26.8-38.5,40.2-66l4.5,8.8c-13.4,27.5-26.8,49.5-40.2,66-13.4,16.5-26.9,27.2-40.3,32.2-2.6,1-5.1,1.6-7.6,2s-6.7.4-9.8-.2c-5.4-1.1-10.1-3.7-14.2-7.9-2.5-2.6-4.8-5.9-6.8-9.8Z" style="fill: none;"/>
    </clipPath>
    <clipPath id="clippath-15">
      <path d="M374.1,328.2l-4.5-8.8c.2.4.5.6.9.5l4.5,8.8c-.4,0-.7-.1-.9-.5Z" style="fill: none;"/>
    </clipPath>
    <clipPath id="clippath-16">
      <path d="M390.7,237.9l4.5,8.8c.3.6.6,1.2.8,1.9,2.3,6.3,2.1,15.6-.6,27.9-2.7,12.2-6.4,23.8-10.9,34.9-4.6,11-7.6,16.8-9.4,17.4l-4.5-8.8c1.8-.6,4.9-6.4,9.4-17.4,4.6-11,8.2-22.6,10.9-34.9,2.7-12.2,2.9-21.5.6-27.9-.2-.7-.5-1.3-.8-1.9Z" style="fill: none;"/>
    </clipPath>
    <clipPath id="clippath-17">
      <path d="M369.5,310l4.5,8.8c-.2-.3-.5-.5-1.2-.3l-4.5-8.8c.7-.1,1,0,1.2.3Z" style="fill: none;"/>
    </clipPath>
    <clipPath id="clippath-18">
      <path d="M351.9,382l-4.5-8.8c-.2-.4-.4-.8-.5-1.2-1.9-5.2-1.3-12.5,1.7-21.9,3-9.4,6.7-18.4,11.2-26.9,4.4-8.6,7.3-13.1,8.6-13.5l4.5,8.8c-1.3.5-4.2,5-8.6,13.5-4.5,8.6-8.2,17.5-11.2,26.9-3,9.4-3.6,16.7-1.7,21.9.1.4.3.8.5,1.2Z" style="fill: none;"/>
    </clipPath>
    <clipPath id="clippath-19">
      <path d="M409.5,230.1l4.5,8.8c-1.5-3-3.3-5.6-5.4-7.9-3.3-3.5-6.9-5.8-10.9-6.8-2.5-.6-5-.7-7.7-.3l-4.5-8.8c2.7-.4,5.2-.3,7.7.3,4,1,7.7,3.2,10.9,6.8,2.1,2.2,3.9,4.9,5.4,7.9Z" style="fill: none;"/>
    </clipPath>
    <clipPath id="clippath-20">
      <path d="M294.6,466.4l-4.5-8.8c-1.5-2.9-2.9-6.1-4.1-9.5-2.9-8.1-4.6-17.1-5.2-27.1-.6-10,0-20.5,1.7-31.6,1.7-11,4.5-22.8,8.2-35.3,3.8-12.5,8.7-25.9,14.6-40.3,6.2-14.9,12.8-28.2,19.9-40,7-11.8,13.7-21.4,20.2-29,6.4-7.6,12.7-13.8,18.8-18.6,6.1-4.8,11.4-8,16-9.7,1.8-.7,3.6-1.1,5.3-1.4l4.5,8.8c-1.7.3-3.5.7-5.3,1.4-4.6,1.7-9.9,4.9-16,9.7-6.1,4.8-12.4,11-18.8,18.6-6.4,7.6-13.2,17.3-20.2,29-7,11.8-13.7,25.1-19.9,40-6,14.4-10.9,27.8-14.6,40.3-3.8,12.5-6.5,24.2-8.2,35.3-1.7,11-2.3,21.6-1.7,31.6.6,10,2.3,19,5.2,27.1,1.2,3.4,2.6,6.6,4.1,9.5Z" style="fill: none;"/>
    </clipPath>
    <clipPath id="clippath-21">
      <path d="M386.7,807.1l-4.5-8.8c-.1-.2-.2-.5-.3-.8-.6-1.6-.7-3.7-.2-6.2l4.5,8.8c-.5,2.5-.4,4.6.2,6.2,0,.3.2.5.3.8Z" style="fill: none;"/>
    </clipPath>
    <clipPath id="clippath-22">
      <path d="M445.9,742.5l-4.5-8.8c11.1-2.9,20.6-5,28.6-6.1,1.2-.2,2.4-.3,3.5-.5,8.6-1.1,21.2-2.3,37.8-3.6,9.5-.8,17.5-1.6,24-2.6s8.8-1.5,12-2.3l4.5,8.8c-3.2.8-7.2,1.6-12,2.3s-14.5,1.8-24,2.6c-16.6,1.4-29.2,2.6-37.8,3.6-1.1.1-2.3.3-3.5.5-8,1.2-17.5,3.2-28.6,6.1Z" style="fill: none;"/>
    </clipPath>
    <clipPath id="clippath-23">
      <path d="M386.2,800l-4.5-8.8c1.3-5.9,2.7-11.6,4-17,1.3-5.4,3.2-9.9,5.5-13.6,2.4-3.6,6.4-7.3,12-10.9,5.6-3.6,13.5-7.3,23.5-11l4.5,8.8c-10,3.8-17.8,7.5-23.5,11-5.6,3.6-9.7,7.2-12,10.9-2.4,3.6-4.2,8.2-5.5,13.6-1.3,5.4-2.6,11.1-4,17Z" style="fill: none;"/>
    </clipPath>
    <clipPath id="clippath-24">
      <path d="M493.3,683.6l-4.5-8.8c-.3-.6-.6-1.2-.8-1.9-3.5-9.7-2.3-27.1,3.6-52.1,4.8-21.5,6.8-33.3,6.1-35.3,0-.2-.2-.4-.3-.6l4.5,8.8c0,.2.2.4.3.6.7,2-1.3,13.8-6.1,35.3-5.8,25-7,42.4-3.6,52.1.3.7.5,1.4.8,1.9Z" style="fill: none;"/>
    </clipPath>
    <clipPath id="clippath-25">
      <path d="M514.9,555.9l4.5,8.8c-1.2-2.2-2.7-3.8-4.7-4.7-1.7-.8-3.6-1-5.6-.7l-4.5-8.8c2.1-.3,3.9,0,5.6.7,2,.9,3.6,2.5,4.7,4.7Z" style="fill: none;"/>
    </clipPath>
    <clipPath id="clippath-26">
      <path d="M431.2,747.6l-4.5-8.8c7-28.2,13.9-53.5,20.7-75.8,6.8-22.3,13.4-41.5,19.8-57.5,6.4-16,12.5-28.6,18.4-37.7,5.9-9.2,11.1-14.6,15.9-16.4,1.1-.4,2.1-.7,3.2-.8l4.5,8.8c-1,.1-2.1.4-3.2.8-4.7,1.7-10,7.2-15.9,16.4-5.8,9.2-12,21.8-18.4,37.7-6.4,16-13,35.2-19.8,57.5-6.8,22.3-13.7,47.6-20.7,75.8Z" style="fill: none;"/>
    </clipPath>
    <clipPath id="clippath-27">
      <path d="M753.7,659.5l-4.5-8.8c2.1-.4,3.8-.8,5-1.3,2.3-.8,4.6-2.3,6.9-4.4,2.3-2.1,4.4-4.6,6.6-7.5,2.1-2.9,4.5-6.6,7.1-10.9l4.5,8.8c-2.6,4.4-5,8-7.1,10.9-2.1,2.9-4.3,5.4-6.6,7.5-2.3,2.1-4.6,3.6-6.9,4.4-1.2.4-2.8.9-5,1.3Z" style="fill: none;"/>
    </clipPath>
    <clipPath id="clippath-28">
      <path d="M728.2,664.3l-4.5-8.8c-.9-1.8-1.8-4-2.7-6.5l4.5,8.8c.9,2.5,1.8,4.7,2.7,6.5Z" style="fill: none;"/>
    </clipPath>
    <clipPath id="clippath-29">
      <path d="M732.2,652.5l-4.5-8.8c3.6-.5,6.3-.4,8,.3,1.7.8,4.3,2.4,7.7,5.1l4.5,8.8c-3.5-2.6-6.1-4.3-7.7-5.1-1.7-.8-4.3-.9-8-.3Z" style="fill: none;"/>
    </clipPath>
    <clipPath id="clippath-30">
      <path d="M747.9,658l-4.5-8.8c3.3-2.9,5.5-6.1,6.6-9.5,1.1-3.4.8-7.4-.8-12-.2-.5-.4-1-.6-1.5l4.5,8.8c.2.4.4.9.6,1.5,1.7,4.6,1.9,8.6.8,12-1.1,3.4-3.3,6.6-6.6,9.5Z" style="fill: none;"/>
    </clipPath>
    <clipPath id="clippath-31">
      <path d="M747.9,624.9l4.5,8.8c.2.4.4.8.6,1.2l-4.5-8.8c-.2-.4-.4-.8-.6-1.2Z" style="fill: none;"/>
    </clipPath>
    <clipPath id="clippath-32">
      <path d="M724.7,655.8l-4.5-8.8c9.2-20.3,15.4-34.4,18.7-42.4l4.5,8.8c-3.3,8-9.6,22.1-18.7,42.4Z" style="fill: none;"/>
    </clipPath>
    <clipPath id="clippath-33">
      <path d="M755,604.7l-4.5-8.8c.5,1.1,1.5,2.6,2.9,4.5,1.8,2.5,3.3,4.7,4.5,6.4.4.7.9,1.4,1.3,2.2l4.5,8.8c-.4-.8-.8-1.5-1.3-2.2-1.1-1.8-2.6-3.9-4.5-6.4-1.4-1.9-2.4-3.5-2.9-4.5Z" style="fill: none;"/>
    </clipPath>
    <clipPath id="clippath-34">
      <path d="M743.4,613.4l-4.5-8.8c-1.2-7.2.6-11.7,5.3-13.4.5-.2,1-.3,1.5-.4.8-.1,1.7-.1,2.7,0l4.5,8.8c-1,0-1.8,0-2.7,0s-1,.2-1.5.4c-4.7,1.7-6.5,6.2-5.3,13.4Z" style="fill: none;"/>
    </clipPath>
    <clipPath id="clippath-35">
      <path d="M679,683.6l-4.5-8.8c1.1,2.2,3.2,3.1,6.1,2.6s2.1-.4,3.3-.9c2.4-.9,5.7-4.4,10-10.6l4.5,8.8c-4.2,6.2-7.5,9.7-10,10.6-1.2.4-2.3.7-3.3.9-3,.4-5-.4-6.1-2.6Z" style="fill: none;"/>
    </clipPath>
    <clipPath id="clippath-36">
      <path d="M711.8,666.4l-4.5-8.8c1-.3,1.8-.9,2.6-1.7.8-.8,1.4-1.6,2-2.4.5-.8,1.7-2.5,3.6-5.3l4.5,8.8c-1.8,2.7-3,4.5-3.6,5.3-.5.8-1.2,1.6-2,2.4-.8.8-1.6,1.4-2.6,1.7Z" style="fill: none;"/>
    </clipPath>
    <clipPath id="clippath-37">
      <path d="M695.3,670.2l-4.5-8.8c-.4-.8-.7-1.5-1-2.3l4.5,8.8c.3.8.6,1.6,1,2.3Z" style="fill: none;"/>
    </clipPath>
    <clipPath id="clippath-38">
      <path d="M694.3,667.9l-4.5-8.8c-1.2-3.5-1.8-7.3-1.6-11.4.2-4.1.9-9.1,2.1-14.8l4.5,8.8c-1.2,5.7-1.9,10.6-2.1,14.8-.2,4.1.4,7.9,1.6,11.4Z" style="fill: none;"/>
    </clipPath>
    <clipPath id="clippath-39">
      <path d="M702.4,630.8l4.5,8.8c-.7-1.3-1.4-2.2-2.1-2.7-1.2-.7-2.9-.9-5.2-.6l-4.5-8.8c2.3-.3,4-.1,5.2.6.8.5,1.5,1.4,2.1,2.7Z" style="fill: none;"/>
    </clipPath>
    <clipPath id="clippath-40">
      <path d="M667.6,684.4l-4.5-8.8c-.7-1.3-1.3-2.7-1.8-4.2-1.3-3.5-1.5-7.9-.6-13,.9-5.2,2.5-10.3,5-15.4,2.5-5.1,5.5-9.6,9-13.5,3.5-3.9,7.1-6.5,10.8-7.8,1.4-.5,2.7-.9,3.9-1s2-.2,2.8,0c1.6.2,2.7.9,3.3,2l4.5,8.8c-.6-1.1-1.7-1.8-3.3-2-.8-.1-1.8,0-2.8,0s-2.5.5-3.9,1c-3.7,1.4-7.3,4-10.8,7.8-3.5,3.9-6.5,8.4-9,13.5-2.5,5.1-4.1,10.2-5,15.4-.9,5.2-.6,9.5.6,13,.5,1.5,1.1,2.9,1.8,4.2Z" style="fill: none;"/>
    </clipPath>
    <clipPath id="clippath-41">
      <path d="M637.1,697.9l-4.5-8.8c1.1,2.2,2.7,3.2,4.8,2.9s.8-.2,1.3-.3c2.1-.8,4.5-2.9,7.2-6.4,2.7-3.5,6.1-8.6,10.2-15.3l4.5,8.8c-4.1,6.7-7.5,11.9-10.2,15.3-2.7,3.5-5.1,5.6-7.2,6.4-.4.2-.9.3-1.3.3-2,.3-3.6-.7-4.8-2.9Z" style="fill: none;"/>
    </clipPath>
    <clipPath id="clippath-42">
      <path d="M626.2,715.5l-4.5-8.8c-.3-.6-.6-1.3-.8-2-.7-2-1.2-4.6-1.3-7.7-.1-3.1,0-7.9.1-14.4l4.5,8.8c-.2,6.5-.3,11.3-.1,14.4.1,3.1.6,5.7,1.3,7.7.3.7.5,1.4.8,2Z" style="fill: none;"/>
    </clipPath>
    <clipPath id="clippath-43">
      <path d="M616.6,695.8l-4.5-8.8c4.2-7,8.3-18.1,12.3-33.3l4.5,8.8c-4,15.2-8.1,26.3-12.3,33.3Z" style="fill: none;"/>
    </clipPath>
    <clipPath id="clippath-44">
      <path d="M613.4,669.2l-4.5-8.8s0,0,0-.1c-.7-1.8-.5-5,.5-9.4l4.5,8.8c-1,4.5-1.2,7.6-.5,9.4,0,0,0,0,0,.1Z" style="fill: none;"/>
    </clipPath>
    <clipPath id="clippath-45">
      <path d="M647.2,635.9l-4.5-8.8c2-.5,3.8-.9,5.3-1.3,1.6-.4,2.8-.7,3.7-.9l4.5,8.8c-.9.2-2.1.5-3.7.9-1.5.4-3.3.8-5.3,1.3Z" style="fill: none;"/>
    </clipPath>
    <clipPath id="clippath-46">
      <path d="M613.9,659.7l-4.5-8.8c.8-3.8,1.7-6.7,2.8-8.8s2.8-3.8,5-5.2c2.2-1.4,5.5-2.9,9.8-4.5l4.5,8.8c-4.3,1.6-7.6,3.1-9.8,4.5-2.2,1.4-3.9,3.1-5,5.2s-2.1,5-2.8,8.8Z" style="fill: none;"/>
    </clipPath>
    <clipPath id="clippath-47">
      <path d="M647.2,610.8l4.5,8.8c-.4-.8-1.3-1.1-2.7-.9l-4.5-8.8c1.4-.2,2.3,0,2.7.9Z" style="fill: none;"/>
    </clipPath>
    <clipPath id="clippath-48">
      <path d="M635.2,639.8l-4.5-8.8c1.1-6.3,2.5-11,4.1-14.1,1.6-3.1,4-5.2,7.1-6.3,1-.4,1.8-.6,2.6-.7l4.5,8.8c-.7.1-1.6.3-2.6.7-3.1,1.1-5.5,3.2-7.1,6.3-1.6,3.1-3,7.7-4.1,14.1Z" style="fill: none;"/>
    </clipPath>
    <clipPath id="clippath-49">
      <path d="M585.7,713.1l-4.5-8.8c.8,1.5,2,2.6,3.7,3.2,1.3.5,2.7.7,4.3.4s1.5-.3,2.4-.6c2.6-1,5.2-3,7.7-6,2.5-3.1,5.5-7.6,9.1-13.6l4.5,8.8c-3.6,6-6.6,10.6-9.1,13.6-2.5,3.1-5.1,5.1-7.7,6-.8.3-1.6.5-2.4.6-1.5.2-2.9,0-4.3-.4-1.7-.6-2.9-1.7-3.7-3.2Z" style="fill: none;"/>
    </clipPath>
    <clipPath id="clippath-50">
      <path d="M575.4,720.6l-4.5-8.8c-.8-1.6-1.5-3.2-2.1-5-.8-2.1-1.3-4.3-1.5-6.4-.3-2.1-.3-3.9-.1-5.4.2-1.5.6-3.9,1.3-7.2l4.5,8.8c-.7,3.3-1.2,5.7-1.3,7.2-.2,1.5-.1,3.3.1,5.4.2,2.1.7,4.2,1.5,6.4.6,1.7,1.3,3.4,2.1,5Z" style="fill: none;"/>
    </clipPath>
    <clipPath id="clippath-51">
      <path d="M590.1,662.9l4.5,8.8c-.8-1.6-2.2-2.2-4.2-1.9s-1.3.3-2.1.5c-6.6,2.4-11.8,11.2-15.4,26.3l-4.5-8.8c3.6-15.1,8.8-23.8,15.4-26.3.7-.3,1.4-.5,2.1-.5,2-.3,3.4.3,4.2,1.9Z" style="fill: none;"/>
    </clipPath>
    <clipPath id="clippath-52">
      <path d="M586.3,659l-4.5-8.8c-.1-.2-.2-.5-.3-.7-.9-2.4-.6-5.5.7-9.4,1.3-3.8,3.2-6.2,5.7-7.1.5-.2,1-.3,1.5-.4,1.1-.2,2.2,0,3.2.4,1.2.5,2.1,1.4,2.8,2.7l4.5,8.8c-.7-1.3-1.6-2.2-2.8-2.7-1-.4-2.1-.5-3.2-.4s-1,.2-1.5.4c-2.5.9-4.4,3.3-5.7,7.1-1.3,3.8-1.5,7-.7,9.4,0,.2.2.5.3.7Z" style="fill: none;"/>
    </clipPath>
    <clipPath id="clippath-53">
      <path d="M822.9,478.4l-4.5-8.8c.6,1.2,2.3,1.6,5.1,1.2s4.6-1,7.8-2.2c11.4-4.2,22.3-11.3,32.7-21.5,10.4-10.1,18.4-20.5,24.1-31.2,5.7-10.7,7.6-18.4,5.9-23.3-.2-.5-.4-.9-.6-1.3l4.5,8.8c.2.4.4.9.6,1.3,1.7,4.8-.3,12.6-5.9,23.3-5.7,10.7-13.7,21.1-24.1,31.2-10.4,10.1-21.3,17.3-32.7,21.5-3.2,1.2-5.8,1.9-7.8,2.2s-4.4,0-5.1-1.2Z" style="fill: none;"/>
    </clipPath>
    <clipPath id="clippath-54">
      <path d="M807.4,505.5l-4.5-8.8c-.7-1.3-1.3-2.8-1.9-4.4-1.5-4.3-2-8.1-1.3-11.5.7-3.4,2.5-7,5.6-10.9,7.4-9.6,16.3-16.3,26.7-20.1.3,0,.5-.2.7-.2.6,0,1,0,1.3.5l4.5,8.8c-.2-.4-.6-.6-1.3-.5s-.5,0-.7.2c-10.4,3.8-19.3,10.5-26.7,20.1-3,3.9-4.9,7.5-5.6,10.9-.7,3.4-.3,7.2,1.3,11.5.6,1.6,1.2,3.1,1.9,4.4Z" style="fill: none;"/>
    </clipPath>
    <clipPath id="clippath-55">
      <path d="M809.3,405.8l-4.5-8.8c-.2-.3-.3-.7-.5-1l4.5,8.8c.1.3.3.7.5,1Z" style="fill: none;"/>
    </clipPath>
    <clipPath id="clippath-56">
      <path d="M903,381.3l4.5,8.8c-4-7.9-9.4-13.3-16-16.4-5.8-2.7-12.2-3.5-19.2-2.5s-6.8,1.4-10.4,2.7c-8.6,3.2-20.6,10.8-35.9,23l-4.5-8.8c15.3-12.2,27.2-19.8,35.9-23,3.6-1.3,7.1-2.2,10.4-2.7,7-1,13.5-.2,19.2,2.5,6.6,3.1,12,8.6,16,16.4Z" style="fill: none;"/>
    </clipPath>
    <clipPath id="clippath-57">
      <path d="M808.8,404.8l-4.5-8.8c-1.5-21.6,6.6-49.2,24.3-82.6l4.5,8.8c-17.6,33.4-25.7,61-24.3,82.6Z" style="fill: none;"/>
    </clipPath>
    <clipPath id="clippath-58">
      <path d="M833.1,322.2l-4.5-8.8c16.2-5.1,28.6-9.3,37.2-12.4,12.5-4.6,24.4-9.3,35.7-14l4.5,8.8c-11.2,4.7-23.1,9.4-35.7,14-8.6,3.1-20.9,7.3-37.2,12.4Z" style="fill: none;"/>
    </clipPath>
    <clipPath id="clippath-59">
      <path d="M698,518.1l-4.5-8.8c3.3,6.5,7.6,9.4,12.9,8.6s1.9-.4,2.8-.7c4.5-1.6,10-6.3,16.6-14.1,6.6-7.8,13.1-17.5,19.4-29.1,6.1-11.2,10.7-23,13.9-35.4,3.2-12.3,4.8-24,5-34.9l4.5,8.8c-.1,10.9-1.8,22.6-5,34.9-3.2,12.4-7.8,24.2-13.9,35.4-6.3,11.7-12.8,21.4-19.4,29.1-6.6,7.8-12.2,12.5-16.6,14.1-1,.4-1.9.6-2.8.7-5.3.8-9.5-2.1-12.9-8.6Z" style="fill: none;"/>
    </clipPath>
    <clipPath id="clippath-60">
      <path d="M759.3,373.9l4.5,8.8c.5.9.9,2,1.3,3.1,2.4,6.8,3.6,15.7,3.5,26.6l-4.5-8.8c.1-10.9-1-19.8-3.5-26.6-.4-1.1-.8-2.2-1.3-3.1Z" style="fill: none;"/>
    </clipPath>
    <clipPath id="clippath-61">
      <path d="M770.3,363.3l4.5,8.8c-1.8-3.6-3.8-6.4-5.8-8.4-3.5-3.6-7.8-5.5-12.9-5.8l-4.5-8.8c5.1.3,9.3,2.2,12.9,5.8,2,2,3.9,4.8,5.8,8.4Z" style="fill: none;"/>
    </clipPath>
    <clipPath id="clippath-62">
      <path d="M677.2,520.5l-4.5-8.8c-1.5-2.9-2.8-6-4-9.3-4.9-13.8-6.3-29.7-4-47.7,2.3-18,7.2-35.4,14.8-52,7.5-16.6,16.6-30.6,27.2-42,10.5-11.3,20.7-17.7,30.7-19.1,6.5-.9,11.1,1.4,14,7l4.5,8.8c-2.9-5.6-7.5-7.9-14-7-9.9,1.5-20.2,7.8-30.7,19.1-10.6,11.4-19.7,25.4-27.2,42-7.5,16.6-12.5,33.9-14.8,52-2.3,18-1,33.9,4,47.7,1.2,3.3,2.5,6.4,4,9.3Z" style="fill: none;"/>
    </clipPath>
  </defs>
  <g style="isolation: isolate;">
    <g style="isolation: isolate;">
      <g style="clip-path: url(#clippath);">
        <g style="isolation: isolate;">
          <path d="M553.1,350.5l-4.5-8.8c2.1-1,3.8-1.8,5.2-2.4l4.5,8.8c-1.4.6-3.1,1.4-5.2,2.4" style="fill: #7f030b;"/>
          <path d="M558.3,348.1l-4.5-8.8c1.1-.5,2-.8,2.7-1l4.5,8.8c-.7.2-1.6.5-2.7,1" style="fill: #84030b;"/>
          <path d="M561,347.1l-4.5-8.8c.1,0,.2,0,.3,0,.2,0,.3,0,.5-.1l4.5,8.8c-.2,0-.4,0-.5.1-.1,0-.2,0-.3,0" style="fill: #88040b;"/>
          <path d="M561.8,346.9l-4.5-8.8c0,0,.2,0,.2,0,.3,0,.6,0,.9,0l4.5,8.8c-.3,0-.6,0-.9,0,0,0-.2,0-.2,0" style="fill: #8d040c;"/>
          <path d="M563,346.8l-4.5-8.8c.7,0,1.6,0,2.5,0l4.5,8.8c-.9,0-1.8,0-2.5,0" style="fill: #91040c;"/>
          <path d="M565.5,346.8l-4.5-8.8c.7,0,1.5.1,2.4.3l4.5,8.8c-.9-.1-1.7-.2-2.4-.3" style="fill: #96040d;"/>
        </g>
      </g>
    </g>
    <g style="isolation: isolate;">
      <g style="clip-path: url(#clippath-1);">
        <g style="isolation: isolate;">
          <path d="M573.8,347.1l-4.5-8.8c.4,0,.8,0,1.1,0l4.5,8.8c-.4,0-.7,0-1.1,0" style="fill: #91040c;"/>
          <path d="M574.9,347.1l-4.5-8.8c.5,0,1.1,0,1.6-.2s.4,0,.5,0l4.5,8.8c-.2,0-.4,0-.5,0-.5,0-1.1.1-1.6.2" style="fill: #8d040c;"/>
          <path d="M577,346.9l-4.5-8.8c.7-.1,1.4-.3,2-.5l4.5,8.8c-.7.2-1.3.4-2,.5" style="fill: #88040b;"/>
          <path d="M579.1,346.4l-4.5-8.8c.4-.1.8-.2,1.2-.4.2,0,.5-.2.7-.3l4.5,8.8c-.2.1-.5.2-.7.3-.4.1-.8.3-1.2.4" style="fill: #84030b;"/>
          <path d="M580.9,345.7l-4.5-8.8c.6-.3,1.3-.6,1.9-1l4.5,8.8c-.6.4-1.3.7-1.9,1" style="fill: #7f030b;"/>
          <path d="M582.8,344.7l-4.5-8.8c.9-.5,1.9-1.2,2.8-2l4.5,8.8c-.9.8-1.9,1.4-2.8,2" style="fill: #7b030a;"/>
          <path d="M585.7,342.8l-4.5-8.8c4.9-4,10.1-11,15.6-21l4.5,8.8c-5.5,10-10.7,17-15.6,21" style="fill: #76030a;"/>
        </g>
      </g>
    </g>
    <polygon points="532.2 355.6 527.7 346.8 525.6 341 530.1 349.8 532.2 355.6" style="fill: #72030a;"/>
    <g style="isolation: isolate;">
      <g style="clip-path: url(#clippath-2);">
        <g style="isolation: isolate;">
          <path d="M567.9,347.1l-4.5-8.8c3.5-7.8,5.9-14.1,7.2-19.1,1.3-5,1.6-8.6.8-10.7,0-.2-.2-.4-.3-.6l4.5,8.8c0,.2.2.4.3.6.8,2.1.5,5.7-.8,10.7-1.3,5-3.7,11.4-7.2,19.1" style="fill: #76030a;"/>
        </g>
      </g>
    </g>
    <g style="isolation: isolate;">
      <g style="clip-path: url(#clippath-3);">
        <g style="isolation: isolate;">
          <path d="M553.7,330.4l-4.5-8.8c2.2-3.4,4.7-7.4,7.6-12.1,2.8-4.6,5.2-8.3,7.1-11,1.9-2.7,3.8-5,5.9-7,.4-.4.8-.8,1.3-1.1l4.5,8.8c-.4.3-.9.7-1.3,1.1-2.1,1.9-4,4.3-5.9,7-1.9,2.7-4.2,6.4-7.1,11-2.8,4.6-5.4,8.6-7.6,12.1" style="fill: #76030a;"/>
          <path d="M575.5,299.3l-4.5-8.8c.8-.7,1.7-1.2,2.5-1.7l4.5,8.8c-.9.5-1.7,1.1-2.5,1.7" style="fill: #7b030a;"/>
          <path d="M578.1,297.6l-4.5-8.8c.7-.4,1.4-.7,2.1-1.1l4.5,8.8c-.7.3-1.4.7-2.1,1.1" style="fill: #7f030b;"/>
          <path d="M580.2,296.5l-4.5-8.8c.3-.1.6-.2.9-.4.2,0,.5-.2.7-.2l4.5,8.8c-.2,0-.5.1-.7.2-.3.1-.6.2-.9.4" style="fill: #84030b;"/>
          <path d="M581.8,295.9l-4.5-8.8c.3,0,.6-.2.9-.2l4.5,8.8c-.3,0-.6.1-.9.2" style="fill: #88040b;"/>
          <path d="M582.6,295.7l-4.5-8.8c0,0,.1,0,.2,0,.1,0,.3,0,.4,0l4.5,8.8c-.1,0-.3,0-.4,0s-.1,0-.2,0" style="fill: #8d040c;"/>
          <path d="M583.2,295.6l-4.5-8.8c.2,0,.3,0,.4,0l4.5,8.8c-.1,0-.3,0-.4,0" style="fill: #91040c;"/>
          <path d="M583.7,295.6l-4.5-8.8c.1,0,.3,0,.4,0l4.5,8.8c-.1,0-.3,0-.4,0" style="fill: #96040d;"/>
          <path d="M584.1,295.7l-4.5-8.8c.1,0,.3,0,.4.2.2,0,.4.2.5.4l4.5,8.8c-.2-.2-.3-.3-.5-.4-.1,0-.3-.1-.4-.2" style="fill: #9a040d;"/>
          <path d="M585,296.3l-4.5-8.8c.1.2.3.3.4.6l4.5,8.8c-.1-.2-.3-.4-.4-.6" style="fill: #96040d;"/>
          <path d="M585.4,296.8l-4.5-8.8c.1.2.2.4.3.6l4.5,8.8c-.1-.2-.2-.4-.3-.6" style="fill: #91040c;"/>
        </g>
      </g>
    </g>
    <g style="isolation: isolate;">
      <g style="clip-path: url(#clippath-4);">
        <g style="isolation: isolate;">
          <path d="M537.9,408.2l-4.5-8.8c-.3-.6-.6-1.3-.9-2.1-1.3-3.6-1.9-7.7-1.8-12.2,0-4.5.6-8.9,1.5-13.2.9-4.3,2-8.7,3.3-13.3,1.3-4.5,2.2-7.9,2.6-10,3.5-18.2,5.9-33.5,7.1-45.8l4.5,8.8c-1.2,12.3-3.6,27.6-7.1,45.8-.4,2.2-1.3,5.5-2.6,10-1.3,4.6-2.4,9-3.3,13.3-.9,4.3-1.4,8.7-1.5,13.2,0,4.5.5,8.5,1.8,12.2.3.8.6,1.5.9,2.1" style="fill: #76030a;"/>
        </g>
      </g>
    </g>
    <path d="M601.2,321.8l2.1,5.9c-2.9,5.3-5.9,10.4-8.8,15.1-2.9,4.8-5.8,8.8-8.7,12.1-2.9,3.3-5.9,5.5-8.9,6.6-1.1.4-2.4.7-3.7.9-.2,0-.3,0-.4,0-1.2.2-2.3.3-3.4.3-1.2,0-2.8,0-4.7,0-1.9,0-3.4,0-4.4,0-1.6,1.1-2.6,1.7-2.8,1.8-.6.2-1.2.4-1.9.5-1.6.2-3.6.2-5.9-.2-.6,4.2-1,9.5-1.2,15.9-.2,6.4-.5,11.5-.8,15.4-.3,3.8-1.2,7.8-2.7,11.7-.9,1.9-1.6,2.9-2.2,3.1-.3,0-.5.2-.8.2-2.1.3-3.8-1.4-5.1-5.1-1.3-3.6-1.9-7.7-1.8-12.2,0-4.5.6-8.9,1.5-13.2.9-4.3,2-8.7,3.3-13.3,1.3-4.5,2.2-7.9,2.6-10,3.5-18.2,5.9-33.5,7.1-45.8-7.4,20.1-13.3,34.8-17.5,43.9l-2.1-5.8c4.9-11.2,8.9-21.6,11.9-31,3.1-9.5,5.5-17,7.3-22.5,1.8-5.6,3.6-9.7,5.5-12.4,1.9-2.7,4.8-4.8,8.6-6.2.4-.2.8-.3,1.1-.3,1.3-.2,2.1.3,2.5,1.4.4,1.2.3,3.1-.5,6-.7,2.8-1.9,5.9-3.5,9.1-2.1,4.3-3.9,9.3-5.3,15-1.4,5.8-2.8,13-4.1,21.6,2.2-3.4,4.7-7.4,7.6-12.1,2.8-4.6,5.2-8.3,7.1-11,1.9-2.7,3.8-5,5.9-7,2.1-1.9,4.3-3.4,6.8-4.3.7-.2,1.2-.4,1.7-.5s1.2,0,1.6.2c.7.4,1.3,1.4,1.9,2.9,1.5,4.2,1.9,8.6,1.3,13.4-.7,4.7-2.2,10-4.5,15.7-2.4,5.7-5.5,12.1-9.3,19.3.9,0,1.8,0,2.7-.2,1.3-.2,2.5-.5,3.7-1,6.5-2.4,13.5-10.5,21-24.2ZM567.9,347.1c3.5-7.8,5.9-14.1,7.2-19.1,1.3-5,1.6-8.6.8-10.7-.6-1.7-1.7-2.4-3.2-2.2-.3,0-.7.1-1,.3-2.8,1-6,4.7-9.4,11.2-3.5,6.4-6.5,14.4-9.2,24.1,4-2,6.7-3.1,8.2-3.5.2,0,.5-.1.8-.2,1.4-.2,3.4-.1,5.8.2" style="fill: #bf0510;"/>
    <g style="isolation: isolate;">
      <g style="clip-path: url(#clippath-5);">
        <g style="isolation: isolate;">
          <path d="M530.1,349.8l-4.5-8.8c4.9-11.2,8.9-21.6,11.9-31,3.1-9.5,5.5-17,7.3-22.5,1.8-5.6,3.6-9.7,5.5-12.4.8-1.1,1.7-2.1,2.9-3l4.5,8.8c-1.1.9-2.1,1.9-2.9,3-1.9,2.7-3.7,6.9-5.5,12.4-1.8,5.6-4.2,13.1-7.3,22.5-3.1,9.5-7,19.8-11.9,31" style="fill: #76030a;"/>
          <path d="M557.6,280.8l-4.5-8.8c.7-.5,1.4-1,2.2-1.5l4.5,8.8c-.8.5-1.5,1-2.2,1.5" style="fill: #7b030a;"/>
          <path d="M559.8,279.3l-4.5-8.8c.7-.4,1.5-.8,2.4-1.2l4.5,8.8c-.8.4-1.6.8-2.4,1.2" style="fill: #7f030b;"/>
          <path d="M562.2,278.1l-4.5-8.8c.4-.2.8-.3,1.2-.5.1,0,.3-.1.4-.1l4.5,8.8c-.1,0-.3,0-.4.1-.4.1-.8.3-1.2.5" style="fill: #84030b;"/>
          <path d="M563.8,277.5l-4.5-8.8c.2,0,.4-.1.6-.1l4.5,8.8c-.2,0-.4,0-.6.1" style="fill: #88040b;"/>
          <path d="M564.4,277.4l-4.5-8.8s0,0,.1,0c.1,0,.2,0,.3,0l4.5,8.8c-.1,0-.2,0-.3,0s0,0-.1,0" style="fill: #8d040c;"/>
          <path d="M564.8,277.3l-4.5-8.8c.1,0,.3,0,.4,0l4.5,8.8c-.1,0-.3,0-.4,0" style="fill: #91040c;"/>
          <path d="M565.2,277.3l-4.5-8.8c.1,0,.3,0,.4,0l4.5,8.8c-.1,0-.3,0-.4,0" style="fill: #96040d;"/>
          <path d="M565.6,277.4l-4.5-8.8c.4,0,.7.3.9.5l4.5,8.8c-.2-.3-.5-.4-.9-.5" style="fill: #9a040d;"/>
          <path d="M566.5,277.9l-4.5-8.8c0,0,.2.2.2.3l4.5,8.8c0-.1-.1-.2-.2-.3" style="fill: #96040d;"/>
          <path d="M566.7,278.2l-4.5-8.8c0,0,0,.1.1.2l4.5,8.8c0,0,0-.1-.1-.2" style="fill: #91040c;"/>
        </g>
      </g>
    </g>
  </g>
  <g style="isolation: isolate;">
    <g style="isolation: isolate;">
      <g style="clip-path: url(#clippath-6);">
        <g style="isolation: isolate;">
          <path d="M468.3,380.8l-4.5-8.8c.2.3.3.6.5.8l4.5,8.8c-.2-.3-.3-.5-.5-.8" style="fill: #91040c;"/>
          <path d="M468.7,381.7l-4.5-8.8c.3.4.5.8.8,1.1l4.5,8.8c-.3-.3-.6-.7-.8-1.1" style="fill: #96040d;"/>
          <path d="M469.6,382.7l-4.5-8.8c.2.2.3.3.5.5.5.4,1,.7,1.5.9l4.5,8.8c-.5-.1-1-.4-1.5-.9-.2-.1-.3-.3-.5-.5" style="fill: #9a040d;"/>
          <path d="M471.6,384.1l-4.5-8.8c.1,0,.3,0,.4,0l4.5,8.8c-.1,0-.3,0-.4,0" style="fill: #96040d;"/>
          <path d="M472,384.2l-4.5-8.8c.1,0,.2,0,.3,0l4.5,8.8c-.1,0-.2,0-.3,0" style="fill: #91040c;"/>
          <path d="M472.4,384.2l-4.5-8.8c0,0,.2,0,.2,0s0,0,0,0l4.5,8.8s0,0,0,0c0,0-.2,0-.2,0" style="fill: #8d040c;"/>
          <path d="M472.7,384.1l-4.5-8.8c.1,0,.2,0,.3,0l4.5,8.8c-.1,0-.2,0-.3,0" style="fill: #88040b;"/>
          <path d="M473,384l-4.5-8.8c0,0,.1,0,.2,0,0,0,0,0,0,0l4.5,8.8s0,0,0,0c0,0-.1,0-.2,0" style="fill: #84030b;"/>
          <path d="M473.3,384l-4.5-8.8c0,0,.2,0,.3-.1l4.5,8.8c-.1,0-.2.1-.3.1" style="fill: #7f030b;"/>
          <path d="M473.6,383.8l-4.5-8.8c.2-.1.5-.3.8-.5l4.5,8.8c-.3.2-.5.4-.8.5" style="fill: #7b030a;"/>
          <path d="M474.3,383.3l-4.5-8.8c.5-.4,1.1-.9,1.8-1.6l4.5,8.8c-.7.7-1.3,1.2-1.8,1.6" style="fill: #76030a;"/>
        </g>
      </g>
    </g>
    <g style="isolation: isolate;">
      <g style="clip-path: url(#clippath-7);">
        <g style="isolation: isolate;">
          <path d="M504.4,365l-4.5-8.8c.1.3.3.5.4.7l4.5,8.8c-.1-.2-.3-.5-.4-.7" style="fill: #91040c;"/>
          <path d="M504.8,365.7l-4.5-8.8c.2.3.5.6.7.9l4.5,8.8c-.2-.3-.5-.6-.7-.9" style="fill: #96040d;"/>
          <path d="M505.5,366.6l-4.5-8.8c.7.7,1.4,1.2,2.3,1.4l4.5,8.8c-.9-.2-1.6-.7-2.3-1.4" style="fill: #9a040d;"/>
          <path d="M507.8,368l-4.5-8.8c.3,0,.5.1.8.1l4.5,8.8c-.3,0-.6,0-.8-.1" style="fill: #96040d;"/>
          <path d="M508.6,368.2l-4.5-8.8c.2,0,.5,0,.7,0l4.5,8.8c-.3,0-.5,0-.7,0" style="fill: #91040c;"/>
          <path d="M509.4,368.2l-4.5-8.8c.2,0,.4,0,.6,0s.1,0,.2,0l4.5,8.8c0,0-.1,0-.2,0-.2,0-.4,0-.6,0" style="fill: #8d040c;"/>
          <path d="M510.2,368.1l-4.5-8.8c.3,0,.6-.1.9-.2l4.5,8.8c-.3,0-.6.2-.9.2" style="fill: #88040b;"/>
          <path d="M511.1,367.8l-4.5-8.8c.2,0,.4-.1.6-.2.1,0,.2,0,.4-.1l4.5,8.8c-.1,0-.2.1-.4.1-.2,0-.4.1-.6.2" style="fill: #84030b;"/>
          <path d="M512.1,367.5l-4.5-8.8c.3-.1.6-.3,1-.5l4.5,8.8c-.3.2-.7.4-1,.5" style="fill: #7f030b;"/>
          <path d="M513.1,367l-4.5-8.8c.5-.3,1.1-.7,1.6-1.1l4.5,8.8c-.6.4-1.1.8-1.6,1.1" style="fill: #7b030a;"/>
          <path d="M514.7,365.9l-4.5-8.8c3.3-2.7,7.2-8,11.7-15.8l4.5,8.8c-4.4,7.8-8.3,13.1-11.7,15.8" style="fill: #76030a;"/>
        </g>
      </g>
    </g>
    <g style="isolation: isolate;">
      <g style="clip-path: url(#clippath-8);">
        <g style="isolation: isolate;">
          <path d="M497.9,385.7l-4.5-8.8c-.4-.7-.7-1.5-1-2.4-1.6-4.3-2.2-11.2-2-20.6l4.5,8.8c-.3,9.4.4,16.3,2,20.6.3.9.7,1.7,1,2.4" style="fill: #76030a;"/>
        </g>
      </g>
    </g>
    <g style="isolation: isolate;">
      <g style="clip-path: url(#clippath-9);">
        <g style="isolation: isolate;">
          <path d="M476.1,381.6l-4.5-8.8c4.7-5.6,8.5-12,11.4-19.3l4.5,8.8c-2.9,7.3-6.7,13.7-11.4,19.3" style="fill: #76030a;"/>
        </g>
      </g>
    </g>
    <g style="isolation: isolate;">
      <g style="clip-path: url(#clippath-10);">
        <g style="isolation: isolate;">
          <path d="M457.4,383.6l-4.5-8.8c-.5-1-1-2.1-1.4-3.3-.9-2.6-1.4-4.8-1.6-6.7-.1-1.9.2-4.1,1-6.4.8-2.3,2.3-5.6,4.4-9.7l4.5,8.8c-2.1,4.1-3.6,7.4-4.4,9.7-.8,2.3-1.2,4.5-1,6.4.1,1.9.6,4.2,1.6,6.7.4,1.1.9,2.2,1.4,3.3" style="fill: #76030a;"/>
        </g>
      </g>
    </g>
    <g style="isolation: isolate;">
      <g style="clip-path: url(#clippath-11);">
        <g style="isolation: isolate;">
          <path d="M487.5,362.4l-4.5-8.8c2.9-7.3,6.1-16.8,9.6-28.8l4.5,8.8c-3.5,11.9-6.7,21.5-9.6,28.8" style="fill: #76030a;"/>
        </g>
      </g>
    </g>
    <g style="isolation: isolate;">
      <g style="clip-path: url(#clippath-12);">
        <g style="isolation: isolate;">
          <path d="M500.9,330.1l-4.5-8.8c.7.7,1.6,1.7,2.7,2.8.7.7,1.3,1.4,1.8,1.9l4.5,8.8c-.5-.6-1.1-1.2-1.8-1.9-1.1-1.2-2-2.1-2.7-2.8" style="fill: #9a040d;"/>
          <path d="M505.4,334.8l-4.5-8.8c.3.3.6.6.8.9.3.4.6.7.8,1l4.5,8.8c-.2-.3-.5-.7-.8-1-.2-.3-.5-.6-.8-.9" style="fill: #96040d;"/>
          <path d="M507,336.8l-4.5-8.8c.1.2.2.3.3.5l4.5,8.8c0-.2-.2-.3-.3-.5" style="fill: #91040c;"/>
        </g>
      </g>
    </g>
    <path d="M526.3,350.1l1.8,5c-8.7,20.7-16.1,32.1-22.3,34.4-.6.2-1.2.4-1.7.5-1.4.2-2.7,0-3.7-.8-1.4-1.1-2.6-3-3.6-5.7-1.6-4.3-2.2-11.2-2-20.6-5,11.9-8.9,20.5-11.5,25.7-2.7,5.2-5.3,8.3-7.9,9.3-.2,0-.3.1-.5.1-1.2.2-3-.3-5.2-1.6-2.6-1.4-5.2-3.5-7.8-6.3-2.6-2.8-4.6-6-5.9-9.6-.9-2.6-1.4-4.8-1.6-6.7-.1-1.9.2-4.1,1-6.4.8-2.3,2.3-5.6,4.4-9.7,5.8-10.7,12.1-19.4,18.8-26,6.7-6.6,12.3-10.7,16.7-12.4.3-.1.6-.2.9-.2.9-.1,1.9,0,2.9.5,1.4.6,2.6,1.4,3.6,2.5,1,1.1,1.7,1.9,1.9,2.5.4,1,.2,1.9-.4,2.6-.6.8-1.8,1.8-3.5,3.2.7.7,1.6,1.7,2.7,2.8,1.1,1.1,2,2.1,2.6,2.8.6.7,1.1,1.4,1.3,2.1.5,1.3,0,4.3-1.5,8.9-1.4,4.6-2.4,8-2.9,10.1-.5,2.1-.3,4.4.6,6.9,1.2,3.4,3.3,4.9,6.1,4.5s1.2-.2,1.8-.5c3.9-1.4,8.8-7.3,14.6-17.6ZM487.5,362.4c2.9-7.3,6.1-16.8,9.6-28.8-12.3,11.9-20.7,21.3-25.3,28.1-4.6,6.8-6,12.7-4.3,17.5.6,1.8,1.5,3.1,2.5,4,.8.7,1.7,1,2.6.9s.4,0,.6-.1c.6-.2,1.6-1,2.9-2.4,4.7-5.6,8.5-12,11.4-19.3" style="fill: #bf0510;"/>
    <g style="isolation: isolate;">
      <g style="clip-path: url(#clippath-13);">
        <g style="isolation: isolate;">
          <path d="M460,357.5l-4.5-8.8c5.8-10.7,12.1-19.4,18.8-26,2.6-2.6,5-4.8,7.3-6.6l4.5,8.8c-2.3,1.8-4.7,4-7.3,6.6-6.7,6.6-13,15.3-18.8,26" style="fill: #76030a;"/>
          <path d="M486.1,324.9l-4.5-8.8c2.1-1.7,4-3,5.7-4l4.5,8.8c-1.8,1-3.7,2.4-5.7,4" style="fill: #7b030a;"/>
          <path d="M491.8,320.9l-4.5-8.8c1-.6,1.9-1,2.8-1.4l4.5,8.8c-.9.4-1.8.8-2.8,1.4" style="fill: #7f030b;"/>
          <path d="M494.6,319.5l-4.5-8.8c.3-.1.6-.2.9-.4,0,0,.2,0,.3,0l4.5,8.8c0,0-.2,0-.3,0-.3.1-.6.2-.9.4" style="fill: #84030b;"/>
          <path d="M495.7,319l-4.5-8.8c.2,0,.3,0,.5-.1l4.5,8.8c-.2,0-.3,0-.5.1" style="fill: #88040b;"/>
          <path d="M496.2,318.9l-4.5-8.8s0,0,.1,0c.1,0,.3,0,.4,0l4.5,8.8c-.1,0-.3,0-.4,0,0,0,0,0-.1,0" style="fill: #8d040c;"/>
          <path d="M496.8,318.9l-4.5-8.8c.2,0,.4,0,.6,0l4.5,8.8c-.2,0-.4,0-.6,0" style="fill: #91040c;"/>
          <path d="M497.4,318.9l-4.5-8.8c.3,0,.6,0,.9.1l4.5,8.8c-.3,0-.6-.1-.9-.1" style="fill: #96040d;"/>
          <path d="M498.2,319l-4.5-8.8c.3,0,.7.2,1.1.4,1.4.6,2.6,1.4,3.6,2.5.2.2.3.4.5.5l4.5,8.8c-.2-.2-.3-.3-.5-.5-1-1-2.2-1.9-3.6-2.5-.4-.2-.7-.3-1.1-.4" style="fill: #9a040d;"/>
          <path d="M503.4,322.3l-4.5-8.8c.5.5.8.9,1.1,1.3l4.5,8.8c-.2-.4-.6-.8-1.1-1.3" style="fill: #96040d;"/>
          <path d="M504.5,323.7l-4.5-8.8c0,.1.1.2.2.3l4.5,8.8c0-.1-.1-.2-.2-.3" style="fill: #91040c;"/>
        </g>
      </g>
    </g>
  </g>
  <g style="isolation: isolate;">
    <g style="isolation: isolate;">
      <g style="clip-path: url(#clippath-14);">
        <g style="isolation: isolate;">
          <path d="M323.8,443l-4.5-8.8c.7,1.4,1.5,2.8,2.3,4.1l4.5,8.8c-.8-1.3-1.6-2.6-2.3-4.1" style="fill: #91040c;"/>
          <path d="M326.1,447.1l-4.5-8.8c1.2,1.9,2.5,3.6,3.9,5.1l4.5,8.8c-1.4-1.5-2.7-3.2-3.9-5.1" style="fill: #96040d;"/>
          <path d="M330,452.2l-4.5-8.8c.2.2.4.4.6.6,3.8,3.9,8.2,6.4,13.2,7.7l4.5,8.8c-5-1.2-9.4-3.8-13.2-7.7-.2-.2-.4-.4-.6-.6" style="fill: #9a040d;"/>
          <path d="M343.8,460.5l-4.5-8.8c.3,0,.7.2,1,.2,1.1.2,2.3.4,3.4.5l4.5,8.8c-1.2,0-2.3-.2-3.4-.5-.3,0-.7-.1-1-.2" style="fill: #96040d;"/>
          <path d="M348.2,461.2l-4.5-8.8c1.2,0,2.4,0,3.7,0l4.5,8.8c-1.3,0-2.5,0-3.7,0" style="fill: #91040c;"/>
          <path d="M351.9,461.2l-4.5-8.8c.9,0,1.8-.1,2.7-.3s.7-.1,1-.2l4.5,8.8c-.3,0-.7.1-1,.2-.9.1-1.8.2-2.7.3" style="fill: #8d040c;"/>
          <path d="M355.6,460.7l-4.5-8.8c1.3-.2,2.7-.6,4-1l4.5,8.8c-1.4.4-2.7.7-4,1" style="fill: #88040b;"/>
          <path d="M359.6,459.8l-4.5-8.8c.8-.3,1.7-.5,2.6-.8.9-.3,1.9-.7,2.8-1.1l4.5,8.8c-.9.4-1.9.8-2.8,1.1-.9.3-1.7.6-2.6.8" style="fill: #84030b;"/>
          <path d="M365,457.8l-4.5-8.8c2.4-1,4.9-2.3,7.3-3.7l4.5,8.8c-2.4,1.4-4.9,2.6-7.3,3.7" style="fill: #7f030b;"/>
          <path d="M372.3,454.1l-4.5-8.8c3.5-2,6.9-4.4,10.4-7.2l4.5,8.8c-3.5,2.8-6.9,5.2-10.4,7.2" style="fill: #7b030a;"/>
          <path d="M382.7,446.9l-4.5-8.8c6.6-5.3,13.2-12,19.8-20.2,13.4-16.5,26.8-38.5,40.2-66l4.5,8.8c-13.4,27.5-26.8,49.5-40.2,66-6.6,8.1-13.2,14.8-19.8,20.2" style="fill: #76030a;"/>
        </g>
      </g>
    </g>
    <g style="isolation: isolate;">
      <g style="clip-path: url(#clippath-15);">
        <g style="isolation: isolate;">
          <path d="M374.1,328.2l-4.5-8.8c0,0,0,0,0,.1l4.5,8.8s0,0,0-.1" style="fill: #91040c;"/>
          <path d="M374.2,328.4l-4.5-8.8c0,0,0,.1.1.2l4.5,8.8s0-.1-.1-.2" style="fill: #96040d;"/>
          <path d="M374.3,328.5l-4.5-8.8c.1.1.2.2.4.2l4.5,8.8c-.1,0-.3-.1-.4-.2" style="fill: #9a040d;"/>
          <path d="M374.7,328.8l-4.5-8.8s0,0,.1,0l4.5,8.8s0,0-.1,0" style="fill: #96040d;"/>
          <path d="M374.8,328.8l-4.5-8.8s0,0,.1,0l4.5,8.8s0,0-.1,0" style="fill: #91040c;"/>
          <path d="M374.9,328.8l-4.5-8.8s0,0,0,0l4.5,8.8s0,0,0,0" style="fill: #8d040c;"/>
        </g>
      </g>
    </g>
    <g style="isolation: isolate;">
      <g style="clip-path: url(#clippath-16);">
        <g style="isolation: isolate;">
          <path d="M375,328.8l-4.5-8.8s0,0,0,0l4.5,8.8s0,0,0,0" style="fill: #84030b;"/>
          <path d="M375.1,328.7l-4.5-8.8c0,0,.1,0,.2,0l4.5,8.8c0,0-.1,0-.2,0" style="fill: #7f030b;"/>
          <path d="M375.3,328.6l-4.5-8.8c0,0,.2-.1.3-.2l4.5,8.8c-.1,0-.2.2-.3.2" style="fill: #7b030a;"/>
          <path d="M375.6,328.4l-4.5-8.8c1.9-1.5,4.8-7.2,8.9-17.1,4.6-11,8.2-22.6,10.9-34.9,2.7-12.2,2.9-21.5.6-27.9-.2-.7-.5-1.3-.8-1.9l4.5,8.8c.3.6.6,1.2.8,1.9,2.3,6.3,2.1,15.6-.6,27.9-2.7,12.2-6.4,23.8-10.9,34.9-4.1,9.9-7,15.6-8.9,17.1" style="fill: #76030a;"/>
        </g>
      </g>
    </g>
    <g style="isolation: isolate;">
      <g style="clip-path: url(#clippath-17);">
        <g style="isolation: isolate;">
          <path d="M372.8,318.5l-4.5-8.8s0,0,0,0l4.5,8.8s0,0,0,0" style="fill: #88040b;"/>
          <path d="M372.9,318.5l-4.5-8.8c.1,0,.2,0,.3,0l4.5,8.8c0,0-.2,0-.3,0" style="fill: #8d040c;"/>
          <path d="M373.2,318.4l-4.5-8.8c0,0,.1,0,.2,0l4.5,8.8c0,0-.1,0-.2,0" style="fill: #91040c;"/>
          <path d="M373.4,318.4l-4.5-8.8c0,0,.1,0,.2,0l4.5,8.8c0,0-.1,0-.2,0" style="fill: #96040d;"/>
          <path d="M373.6,318.5l-4.5-8.8c.1,0,.2,0,.3.2l4.5,8.8c0,0-.2-.1-.3-.2" style="fill: #9a040d;"/>
          <path d="M373.9,318.7l-4.5-8.8s0,0,0,0l4.5,8.8s0,0,0,0" style="fill: #96040d;"/>
          <path d="M374,318.8l-4.5-8.8s0,0,0,0l4.5,8.8s0,0,0,0" style="fill: #91040c;"/>
        </g>
      </g>
    </g>
    <g style="isolation: isolate;">
      <g style="clip-path: url(#clippath-18);">
        <g style="isolation: isolate;">
          <path d="M351.9,382l-4.5-8.8c-.2-.4-.4-.8-.5-1.2-1.9-5.2-1.3-12.5,1.7-21.9,3-9.4,6.7-18.4,11.2-26.9,4-7.7,6.7-12.1,8.2-13.3l4.5,8.8c-1.5,1.2-4.2,5.6-8.2,13.3-4.5,8.6-8.2,17.5-11.2,26.9-3,9.4-3.6,16.7-1.7,21.9.1.4.3.8.5,1.2" style="fill: #76030a;"/>
          <path d="M372.4,318.8l-4.5-8.8c0,0,.2-.1.3-.2l4.5,8.8c0,0-.2.1-.3.2" style="fill: #7b030a;"/>
          <path d="M372.7,318.6l-4.5-8.8s0,0,.1,0l4.5,8.8s0,0-.1,0" style="fill: #7f030b;"/>
          <path d="M372.8,318.5l-4.5-8.8s0,0,0,0l4.5,8.8s0,0,0,0" style="fill: #84030b;"/>
        </g>
      </g>
    </g>
    <g style="isolation: isolate;">
      <g style="clip-path: url(#clippath-19);">
        <g style="isolation: isolate;">
          <path d="M390,224l-4.5-8.8c.6,0,1.3-.2,1.9-.2l4.5,8.8c-.6,0-1.3.1-1.9.2" style="fill: #8d040c;"/>
          <path d="M391.9,223.8l-4.5-8.8c.9,0,1.8,0,2.6,0l4.5,8.8c-.9,0-1.7,0-2.6,0" style="fill: #91040c;"/>
          <path d="M394.5,223.8l-4.5-8.8c1.1,0,2.1.2,3.2.5,0,0,0,0,0,0l4.5,8.8s0,0,0,0c-1-.3-2.1-.4-3.2-.5" style="fill: #96040d;"/>
          <path d="M397.7,224.3l-4.5-8.8c4,1,7.6,3.2,10.9,6.7l4.5,8.8c-3.3-3.5-6.9-5.8-10.9-6.7" style="fill: #9a040d;"/>
          <path d="M408.6,231l-4.5-8.8s0,0,0,0c1.3,1.4,2.4,2.9,3.5,4.5l4.5,8.8c-1.1-1.7-2.2-3.2-3.5-4.5,0,0,0,0,0,0" style="fill: #96040d;"/>
          <path d="M412.1,235.6l-4.5-8.8c.7,1,1.3,2.2,1.9,3.3l4.5,8.8c-.6-1.2-1.2-2.3-1.9-3.3" style="fill: #91040c;"/>
        </g>
      </g>
    </g>
    <g style="isolation: isolate;">
      <g style="clip-path: url(#clippath-20);">
        <g style="isolation: isolate;">
          <path d="M294.6,466.4l-4.5-8.8c-1.5-2.9-2.9-6.1-4.1-9.5-2.9-8.1-4.6-17.1-5.2-27.1-.6-10,0-20.5,1.7-31.6,1.7-11,4.5-22.8,8.2-35.3,3.8-12.5,8.7-25.9,14.6-40.3,6.2-14.9,12.8-28.2,19.9-40,7-11.8,13.7-21.4,20.2-29,6.1-7.3,12.1-13.2,18-18l4.5,8.8c-5.9,4.7-11.9,10.7-18,18-6.4,7.6-13.2,17.3-20.2,29-7,11.8-13.7,25.1-19.9,40-6,14.4-10.9,27.8-14.6,40.3-3.8,12.5-6.5,24.2-8.2,35.3-1.7,11-2.3,21.6-1.7,31.6.6,10,2.3,19,5.2,27.1,1.2,3.4,2.6,6.6,4.1,9.5" style="fill: #76030a;"/>
          <path d="M367.9,235.7l-4.5-8.8c.3-.2.5-.4.8-.6,3.4-2.7,6.6-4.9,9.5-6.6l4.5,8.8c-2.9,1.7-6.1,3.9-9.5,6.6-.3.2-.5.4-.8.6" style="fill: #7b030a;"/>
          <path d="M378.2,228.5l-4.5-8.8c1.7-1,3.4-1.8,4.9-2.5l4.5,8.8c-1.6.7-3.2,1.5-4.9,2.5" style="fill: #7f030b;"/>
          <path d="M383.1,226l-4.5-8.8c.5-.2,1.1-.4,1.6-.6.6-.2,1.2-.4,1.8-.6l4.5,8.8c-.6.2-1.2.4-1.8.6-.5.2-1,.4-1.6.6" style="fill: #84030b;"/>
          <path d="M386.5,224.8l-4.5-8.8c1-.3,1.9-.5,2.8-.7l4.5,8.8c-.9.2-1.9.4-2.8.7" style="fill: #88040b;"/>
          <path d="M389.3,224.1l-4.5-8.8c.2,0,.5,0,.7-.1l4.5,8.8c-.2,0-.5,0-.7.1" style="fill: #8d040c;"/>
        </g>
      </g>
    </g>
    <path d="M390,224c2.7-.4,5.2-.3,7.7.3,4,1,7.7,3.2,10.9,6.8,3.3,3.5,5.9,8,7.8,13.4,3.7,10.3,4.2,23,1.5,38.1-2.7,15.2-7.2,30.6-13.7,46.2-6.5,15.6-13.3,28.9-20.3,39.8-7,10.9-12.7,17.2-17,18.8-.7.3-1.5.5-2.3.6-2.2.3-4.5,0-6.9-1-3.3-1.3-5.4-3.4-6.4-6.2-1.9-5.2-1.3-12.5,1.7-21.9,3-9.4,6.7-18.4,11.2-26.9,4.4-8.6,7.3-13.1,8.6-13.5.8-.2,1.1,0,1.3.5.3.8.3,2.4,0,4.8-.3,2.4-.3,3.8-.1,4.2.2.6.6.9,1,.8,1.8-.6,4.9-6.4,9.4-17.4,4.6-11,8.2-22.6,10.9-34.9,2.7-12.2,2.9-21.5.6-27.9-.9-2.6-2.2-4.4-3.9-5.4-1.2-.7-2.5-.9-4-.7-.6,0-1.3.3-2,.5-6.5,2.4-14.5,11.1-24.1,26.3-9.5,15.1-18.4,33.2-26.6,54.2-8.2,21-13.9,41.7-17.1,62-3.2,20.4-2.5,37,2.1,49.9,2.7,7.4,6,13.2,10.1,17.4,4.1,4.2,8.8,6.8,14.2,7.9,3.1.6,6.4.7,9.8.2s5-1,7.6-2c13.5-4.9,26.9-15.7,40.3-32.2,13.4-16.5,26.8-38.5,40.2-66l3.2,8.8c-9.5,22.7-18.8,41.9-27.9,57.7-9.1,15.8-18.8,28.9-29.1,39.4-10.3,10.5-21.3,17.9-32.9,22.1-4.7,1.7-9.2,2.9-13.5,3.5s-9.8.8-14.4,0c-8.6-1.3-16.1-5-22.4-11.1-6.4-6.1-11.4-14.3-15-24.6-2.9-8.1-4.6-17.1-5.2-27.1-.6-10,0-20.5,1.7-31.6,1.7-11,4.5-22.8,8.2-35.3,3.8-12.5,8.7-25.9,14.6-40.3,6.2-14.9,12.8-28.2,19.9-40,7-11.8,13.7-21.4,20.2-29,6.4-7.6,12.7-13.8,18.8-18.6,6.1-4.8,11.4-8,16-9.7,1.8-.7,3.6-1.1,5.3-1.4Z" style="fill: #bf0510;"/>
  </g>
  <g style="isolation: isolate;">
    <g style="isolation: isolate;">
      <g style="clip-path: url(#clippath-21);">
        <g style="isolation: isolate;">
          <path d="M386.7,807.1l-4.5-8.8c-.1-.2-.2-.5-.3-.8-.6-1.6-.7-3.7-.2-6.2l4.5,8.8c-.5,2.5-.4,4.6.2,6.2,0,.3.2.5.3.8" style="fill: #171844;"/>
        </g>
      </g>
    </g>
    <g style="isolation: isolate;">
      <g style="clip-path: url(#clippath-22);">
        <g style="isolation: isolate;">
          <path d="M445.9,742.5l-4.5-8.8c8.8-2.3,16.6-4.1,23.4-5.3l4.5,8.8c-6.8,1.2-14.6,3-23.4,5.3" style="fill: #1b1c4f;"/>
          <path d="M469.3,737.2l-4.5-8.8c1.8-.3,3.5-.6,5.2-.8s2.4-.3,3.5-.5c8.6-1.1,21.2-2.3,37.8-3.6,9.5-.8,17.5-1.6,24-2.6s3.5-.5,5.1-.8l4.5,8.8c-1.6.3-3.3.6-5.1.8-6.5,1-14.5,1.8-24,2.6-16.6,1.4-29.2,2.6-37.8,3.6-1.1.1-2.3.3-3.5.5s-3.4.5-5.2.8" style="fill: #1c1d51;"/>
          <path d="M544.9,728.8l-4.5-8.8c2.6-.5,4.9-.9,6.9-1.5l4.5,8.8c-2,.5-4.2,1-6.9,1.5" style="fill: #1b1c4f;"/>
        </g>
      </g>
    </g>
    <g style="isolation: isolate;">
      <g style="clip-path: url(#clippath-23);">
        <g style="isolation: isolate;">
          <path d="M386.2,800l-4.5-8.8c1.3-5.9,2.7-11.6,4-17,1.3-5.4,3.2-9.9,5.5-13.6,1.5-2.4,3.8-4.7,6.7-7.1l4.5,8.8c-2.9,2.4-5.2,4.7-6.7,7.1-2.4,3.6-4.2,8.2-5.5,13.6-1.3,5.4-2.6,11.1-4,17" style="fill: #171844;"/>
          <path d="M402.4,762.4l-4.5-8.8c1.6-1.3,3.3-2.5,5.3-3.8.8-.5,1.6-1,2.4-1.5l4.5,8.8c-.8.5-1.6,1-2.4,1.5-2,1.3-3.7,2.5-5.3,3.8" style="fill: #181947;"/>
          <path d="M410.1,757.1l-4.5-8.8c3.6-2.1,7.8-4.2,12.8-6.3l4.5,8.8c-5,2.1-9.3,4.2-12.8,6.3" style="fill: #191a49;"/>
          <path d="M422.9,750.8l-4.5-8.8c2.6-1.1,5.3-2.2,8.2-3.3l4.5,8.8c-2.9,1.1-5.7,2.2-8.2,3.3" style="fill: #1a1b4c;"/>
        </g>
      </g>
    </g>
    <polygon points="515.1 644.9 510.6 636.1 516.4 638.8 520.9 647.6 515.1 644.9" style="fill: #20205c;"/>
    <g style="isolation: isolate;">
      <g style="clip-path: url(#clippath-24);">
        <g style="isolation: isolate;">
          <path d="M493.3,683.6l-4.5-8.8c-.3-.6-.6-1.2-.8-1.9-3.5-9.7-2.3-27.1,3.6-52.1,4.8-21.5,6.8-33.3,6.1-35.3,0-.2-.2-.4-.3-.6l4.5,8.8c0,.2.2.4.3.6.7,2-1.3,13.8-6.1,35.3-5.8,25-7,42.4-3.6,52.1.3.7.5,1.4.8,1.9" style="fill: #171844;"/>
        </g>
      </g>
    </g>
    <g style="isolation: isolate;">
      <g style="clip-path: url(#clippath-25);">
        <g style="isolation: isolate;">
          <path d="M509.1,559.3l-4.5-8.8c.4,0,.7,0,1.1-.1l4.5,8.8c-.3,0-.7,0-1.1.1" style="fill: #1c1d51;"/>
          <path d="M510.2,559.2l-4.5-8.8c.5,0,.9,0,1.4,0l4.5,8.8c-.5,0-.9,0-1.4,0" style="fill: #1d1d54;"/>
          <path d="M511.6,559.2l-4.5-8.8c.5,0,1.1.1,1.6.2l4.5,8.8c-.5-.1-1-.2-1.6-.2" style="fill: #1e1e56;"/>
          <path d="M513.2,559.4l-4.5-8.8c.5.1,1.1.3,1.6.5,1.1.5,2.1,1.2,2.9,2.1l4.5,8.8c-.8-.9-1.8-1.6-2.9-2.1-.5-.2-1-.4-1.6-.5" style="fill: #1f1f59;"/>
          <path d="M517.7,562.1l-4.5-8.8c.4.4.8.9,1.1,1.5l4.5,8.8c-.4-.5-.7-1-1.1-1.5" style="fill: #1e1e56;"/>
          <path d="M518.8,563.6l-4.5-8.8c.2.3.4.7.6,1.1l4.5,8.8c-.2-.4-.4-.8-.6-1.1" style="fill: #1d1d54;"/>
        </g>
      </g>
    </g>
    <g style="isolation: isolate;">
      <g style="clip-path: url(#clippath-26);">
        <g style="isolation: isolate;">
          <path d="M431.2,747.6l-4.5-8.8c7-28.2,13.9-53.5,20.7-75.8,6.8-22.3,13.4-41.5,19.8-57.5,6.4-16,12.5-28.6,18.4-37.7,4-6.3,7.7-10.8,11.2-13.6l4.5,8.8c-3.5,2.8-7.2,7.3-11.2,13.6-5.8,9.2-12,21.8-18.4,37.7-6.4,16-13,35.2-19.8,57.5-6.8,22.3-13.7,47.6-20.7,75.8" style="fill: #171844;"/>
          <path d="M501.3,562.9l-4.5-8.8c.9-.7,1.7-1.3,2.5-1.7l4.5,8.8c-.8.5-1.7,1.1-2.5,1.7" style="fill: #181947;"/>
          <path d="M503.8,561.1l-4.5-8.8c.5-.3,1.1-.6,1.6-.8l4.5,8.8c-.5.2-1,.5-1.6.8" style="fill: #191a49;"/>
          <path d="M505.4,560.3l-4.5-8.8c.2,0,.4-.2.6-.2.4-.1.7-.3,1.1-.4l4.5,8.8c-.4.1-.7.2-1.1.4-.2,0-.4.1-.6.2" style="fill: #1a1b4c;"/>
          <path d="M507.1,559.7l-4.5-8.8c.6-.2,1.1-.3,1.7-.4l4.5,8.8c-.5,0-1.1.2-1.7.4" style="fill: #1b1c4f;"/>
          <path d="M508.7,559.3l-4.5-8.8c.1,0,.3,0,.4,0l4.5,8.8c-.1,0-.3,0-.4,0" style="fill: #1c1d51;"/>
        </g>
      </g>
    </g>
    <path d="M509.1,559.3c2.1-.3,3.9,0,5.6.7,2.5,1.1,4.3,3.3,5.5,6.6,3.9,10.9,2.2,37-5.2,78.4l5.8,2.6c-4.3,12.1-8.5,21.4-12.7,27.7-4.2,6.4-7.6,10-10.3,11-.2,0-.5.1-.7.2-1.9.3-3.5-1.3-4.8-4.8-3.5-9.7-2.3-27.1,3.6-52.1,4.8-21.5,6.8-33.3,6.1-35.3-.5-1.5-1.4-2.1-2.5-1.9-.2,0-.4,0-.6.2-2.6,1-7.1,9.1-13.5,24.3-6.4,15.3-13.6,36.2-21.5,62.7-9.1,29.6-15.2,50.6-18.1,63,11.1-2.9,20.6-5,28.6-6.1s2.4-.3,3.5-.5c8.6-1.1,21.2-2.3,37.8-3.6,9.5-.8,17.5-1.6,24-2.6s8.8-1.5,12-2.3c-5.3,12.9-8.9,21.7-10.9,26.4-2,4.7-3.8,7.7-5.3,9.1-2.4,2.2-6.5,3.8-12.3,4.7-.9.1-1.9.3-3,.5-5.9.9-14.3,1.9-25.2,3-9.9,1-19.2,2.2-28,3.5-2.7.4-5.4.8-8,1.2-11.1,1.8-20.9,4.3-29.4,7.4-4.8,1.8-8.8,3.8-11.9,6.2s-7.3,5.9-12.6,10.7c-5.3,4.8-9.2,7.6-11.7,8.5-.7.3-1.4.5-2.1.5-2.5.4-4.1-.6-4.9-2.9-.6-1.6-.7-3.7-.2-6.2,1.3-5.9,2.7-11.6,4-17,1.3-5.4,3.2-9.9,5.5-13.6,2.4-3.6,6.4-7.3,12-10.9,5.6-3.6,13.5-7.3,23.5-11,7-28.2,13.9-53.5,20.7-75.8,6.8-22.3,13.4-41.5,19.8-57.5,6.4-16,12.5-28.6,18.4-37.7,5.9-9.2,11.1-14.6,15.9-16.4,1.1-.4,2.1-.7,3.2-.8Z" style="fill: #26276e;"/>
  </g>
  <g style="isolation: isolate;">
    <g style="isolation: isolate;">
      <g style="clip-path: url(#clippath-27);">
        <g style="isolation: isolate;">
          <path d="M753.7,659.5l-4.5-8.8c1.6-.3,2.9-.6,3.9-.9l4.5,8.8c-1.1.3-2.4.6-3.9.9" style="fill: #1b1c4f;"/>
          <path d="M757.6,658.6l-4.5-8.8c.4-.1.7-.2,1-.3.3,0,.5-.2.8-.3l4.5,8.8c-.3.1-.5.2-.8.3-.3.1-.7.2-1,.3" style="fill: #1a1b4c;"/>
          <path d="M759.4,657.9l-4.5-8.8c.6-.3,1.3-.6,1.9-1l4.5,8.8c-.6.4-1.3.7-1.9,1" style="fill: #191a49;"/>
          <path d="M761.3,656.9l-4.5-8.8c.9-.5,1.8-1.1,2.7-1.9l4.5,8.8c-.9.7-1.8,1.3-2.7,1.9" style="fill: #181947;"/>
          <path d="M764,655.1l-4.5-8.8c.5-.4,1-.8,1.5-1.3,2.3-2.1,4.4-4.6,6.6-7.5,2.1-2.9,4.5-6.6,7.1-10.9l4.5,8.8c-2.6,4.4-5,8-7.1,10.9-2.1,2.9-4.3,5.4-6.6,7.5-.5.5-1,.9-1.5,1.3" style="fill: #171844;"/>
        </g>
      </g>
    </g>
    <g style="isolation: isolate;">
      <g style="clip-path: url(#clippath-28);">
        <g style="isolation: isolate;">
          <path d="M728.2,664.3l-4.5-8.8c-.9-1.8-1.8-4-2.7-6.5l4.5,8.8c.9,2.5,1.8,4.7,2.7,6.5" style="fill: #171844;"/>
        </g>
      </g>
    </g>
    <g style="isolation: isolate;">
      <g style="clip-path: url(#clippath-29);">
        <g style="isolation: isolate;">
          <path d="M732.2,652.5l-4.5-8.8c1-.1,1.9-.2,2.7-.3l4.5,8.8c-.8,0-1.7.1-2.7.3" style="fill: #1c1d51;"/>
          <path d="M734.8,652.2l-4.5-8.8c.9,0,1.7,0,2.4,0l4.5,8.8c-.7,0-1.5,0-2.4,0" style="fill: #1d1d54;"/>
          <path d="M737.3,652.2l-4.5-8.8c.6,0,1.2.1,1.7.3l4.5,8.8c-.5-.1-1.1-.2-1.7-.3" style="fill: #1e1e56;"/>
          <path d="M739,652.5l-4.5-8.8c.4,0,.8.2,1.1.4,1.7.8,4.3,2.4,7.7,5.1l4.5,8.8c-3.5-2.6-6.1-4.3-7.7-5.1-.3-.1-.7-.3-1.1-.4" style="fill: #1f1f59;"/>
        </g>
      </g>
    </g>
    <polygon points="725.4 657.8 720.9 649 720.2 647 724.7 655.8 725.4 657.8" style="fill: #171742;"/>
    <g style="isolation: isolate;">
      <g style="clip-path: url(#clippath-30);">
        <g style="isolation: isolate;">
          <path d="M747.9,658l-4.5-8.8c3.3-2.9,5.5-6.1,6.6-9.5,1.1-3.4.8-7.4-.8-12-.2-.5-.4-1-.6-1.5l4.5,8.8c.2.4.4.9.6,1.5,1.7,4.6,1.9,8.6.8,12-1.1,3.4-3.3,6.6-6.6,9.5" style="fill: #171844;"/>
        </g>
      </g>
    </g>
    <g style="isolation: isolate;">
      <g style="clip-path: url(#clippath-31);">
        <g style="isolation: isolate;">
          <path d="M753,634.9l-4.5-8.8c-.2-.4-.4-.8-.6-1.2l4.5,8.8c.2.4.4.8.6,1.2" style="fill: #171844;"/>
        </g>
      </g>
    </g>
    <polygon points="752.4 633.6 747.9 624.8 742.1 613.4 746.6 622.2 752.4 633.6" style="fill: #171742;"/>
    <g style="isolation: isolate;">
      <g style="clip-path: url(#clippath-32);">
        <g style="isolation: isolate;">
          <path d="M724.7,655.8l-4.5-8.8c9.2-20.3,15.4-34.4,18.7-42.4l4.5,8.8c-3.3,8-9.6,22.1-18.7,42.4" style="fill: #171844;"/>
        </g>
      </g>
    </g>
    <g style="isolation: isolate;">
      <g style="clip-path: url(#clippath-33);">
        <g style="isolation: isolate;">
          <path d="M755,604.7l-4.5-8.8c.3.5.6,1.1,1.1,1.8l4.5,8.8c-.5-.7-.8-1.3-1.1-1.8" style="fill: #1d1d54;"/>
          <path d="M756.1,606.6l-4.5-8.8c.5.8,1.1,1.7,1.9,2.7,1.8,2.5,3.3,4.7,4.5,6.4,0,0,0,0,0,0l4.5,8.8s0,0,0,0c-1.1-1.8-2.6-3.9-4.5-6.4-.7-1-1.4-1.9-1.9-2.7" style="fill: #1e1e56;"/>
          <path d="M762.5,615.8l-4.5-8.8c.4.7.8,1.4,1.2,2.1l4.5,8.8c-.4-.8-.8-1.5-1.2-2.1" style="fill: #1d1d54;"/>
        </g>
      </g>
    </g>
    <polygon points="752.9 599.6 748.4 590.8 749.5 592.2 754 601 752.9 599.6" style="fill: #1e1e56;"/>
    <path d="M779.2,635.3l2,5.5c-4.7,9.5-9.3,17.1-13.7,22.7-4.4,5.6-8.7,9.2-12.8,10.7-1.3.5-2.6.8-3.9,1-4.2.6-8.5-.1-13.2-2.2-3.6-1.7-6.1-3.6-7.7-5.8-1.5-2.2-3-5.3-4.5-9.5l-.7-2c9.2-20.3,15.4-34.4,18.7-42.4-1.2-7.2.6-11.7,5.3-13.4.5-.2,1-.3,1.5-.4.8-.1,1.7-.1,2.7,0l1.1,1.4c0,.7.2,1.7.7,2.9.4,1,1.5,2.8,3.3,5.4,1.8,2.5,3.3,4.7,4.5,6.4,1.1,1.8,2.1,3.8,3,6.3,1.3,3.6,1.7,7.4,1.2,11.4-.5,3.9-1.8,8-3.9,12.3-2.1,4.2-5.1,8.9-9.1,13.9,2.1-.4,3.8-.8,5-1.3,2.3-.8,4.6-2.3,6.9-4.4,2.3-2.1,4.4-4.6,6.6-7.5,2.1-2.9,4.5-6.6,7.1-10.9ZM747.9,658c3.3-2.9,5.5-6.1,6.6-9.5,1.1-3.4.8-7.4-.8-12-.2-.5-.4-1-.6-1.5-.2-.4-.4-.9-.6-1.3l-5.8-11.5c-2.1,5.1-6.9,15.2-14.4,30.4,3.6-.5,6.3-.4,8,.3,1.7.8,4.3,2.4,7.7,5.1" style="fill: #26276e;"/>
    <g style="isolation: isolate;">
      <g style="clip-path: url(#clippath-34);">
        <g style="isolation: isolate;">
          <path d="M743.4,613.4l-4.5-8.8c-.9-5.8,0-9.8,2.8-12l4.5,8.8c-2.8,2.3-3.8,6.3-2.8,12" style="fill: #171844;"/>
          <path d="M746.2,601.4l-4.5-8.8c.3-.2.6-.5,1-.7l4.5,8.8c-.4.2-.7.4-1,.7" style="fill: #181947;"/>
          <path d="M747.2,600.7l-4.5-8.8c.3-.2.7-.4,1-.5l4.5,8.8c-.4.2-.7.3-1,.5" style="fill: #191a49;"/>
          <path d="M748.3,600.2l-4.5-8.8c.2,0,.3-.1.5-.2.1,0,.3,0,.4-.1l4.5,8.8c-.1,0-.3,0-.4.1-.2,0-.3.1-.5.2" style="fill: #1a1b4c;"/>
          <path d="M749.2,599.9l-4.5-8.8c.3,0,.5-.1.8-.2l4.5,8.8c-.3,0-.6.1-.8.2" style="fill: #1b1c4f;"/>
          <path d="M750,599.7l-4.5-8.8c0,0,.2,0,.3,0,.3,0,.5,0,.8,0l4.5,8.8c-.3,0-.5,0-.8,0s-.2,0-.3,0" style="fill: #1c1d51;"/>
          <path d="M751,599.6l-4.5-8.8c.5,0,1,0,1.5,0l4.5,8.8c-.5,0-1,0-1.5,0" style="fill: #1d1d54;"/>
          <path d="M752.5,599.6l-4.5-8.8c.1,0,.2,0,.4,0l4.5,8.8c-.1,0-.3,0-.4,0" style="fill: #1e1e56;"/>
        </g>
      </g>
    </g>
  </g>
  <g style="isolation: isolate;">
    <g style="isolation: isolate;">
      <g style="clip-path: url(#clippath-35);">
        <g style="isolation: isolate;">
          <path d="M679,683.6l-4.5-8.8c0,.2.2.3.3.5l4.5,8.8c-.1-.2-.2-.3-.3-.5" style="fill: #1d1d54;"/>
          <path d="M679.3,684.1l-4.5-8.8c.2.3.3.5.5.7l4.5,8.8c-.2-.2-.4-.4-.5-.7" style="fill: #1e1e56;"/>
          <path d="M679.9,684.8l-4.5-8.8c.6.7,1.4,1.1,2.3,1.3l4.5,8.8c-.9-.2-1.7-.7-2.3-1.3" style="fill: #1f1f59;"/>
          <path d="M682.2,686.1l-4.5-8.8c.3,0,.7.1,1,.2l4.5,8.8c-.4,0-.7,0-1-.2" style="fill: #1e1e56;"/>
          <path d="M683.2,686.3l-4.5-8.8c.3,0,.7,0,1,0l4.5,8.8c-.4,0-.7,0-1,0" style="fill: #1d1d54;"/>
          <path d="M684.3,686.3l-4.5-8.8c.3,0,.6,0,.9,0s.2,0,.4,0l4.5,8.8c-.1,0-.2,0-.4,0-.3,0-.6,0-.9,0" style="fill: #1c1d51;"/>
          <path d="M685.5,686.2l-4.5-8.8c.5,0,1.1-.2,1.7-.4l4.5,8.8c-.6.2-1.1.3-1.7.4" style="fill: #1b1c4f;"/>
          <path d="M687.2,685.8l-4.5-8.8c.4-.1.8-.3,1.2-.4,0,0,.2,0,.2,0l4.5,8.8c0,0-.2,0-.2,0-.4.2-.8.3-1.2.4" style="fill: #1a1b4c;"/>
          <path d="M688.6,685.2l-4.5-8.8c.2,0,.5-.2.7-.4l4.5,8.8c-.2.1-.5.3-.7.4" style="fill: #191a49;"/>
          <path d="M689.3,684.9l-4.5-8.8c.4-.2.8-.5,1.3-.9l4.5,8.8c-.4.4-.9.7-1.3.9" style="fill: #181947;"/>
          <path d="M690.6,684l-4.5-8.8c2.1-1.7,4.7-4.8,7.7-9.2l4.5,8.8c-3.1,4.4-5.6,7.5-7.7,9.2" style="fill: #171844;"/>
        </g>
      </g>
    </g>
    <polygon points="710.5 666.9 706 658.1 707.3 657.6 711.8 666.4 710.5 666.9" style="fill: #1b1c4f;"/>
    <polygon points="708.5 666 704 657.2 706 658.1 710.5 666.9 708.5 666" style="fill: #20205c;"/>
    <g style="isolation: isolate;">
      <g style="clip-path: url(#clippath-36);">
        <g style="isolation: isolate;">
          <path d="M711.8,666.4l-4.5-8.8c.1,0,.2,0,.3-.1l4.5,8.8c-.1,0-.2,0-.3.1" style="fill: #1a1b4c;"/>
          <path d="M712.1,666.3l-4.5-8.8c.2,0,.5-.2.7-.3l4.5,8.8c-.2.1-.5.2-.7.3" style="fill: #191a49;"/>
          <path d="M712.8,666l-4.5-8.8c.3-.2.5-.3.8-.6l4.5,8.8c-.3.2-.5.4-.8.6" style="fill: #181947;"/>
          <path d="M713.6,665.4l-4.5-8.8c.3-.2.5-.5.8-.7.8-.8,1.4-1.6,2-2.4.5-.8,1.7-2.5,3.6-5.3l4.5,8.8c-1.8,2.7-3,4.5-3.6,5.3-.5.8-1.2,1.6-2,2.4-.2.3-.5.5-.8.7" style="fill: #171844;"/>
        </g>
      </g>
    </g>
    <g style="isolation: isolate;">
      <g style="clip-path: url(#clippath-37);">
        <g style="isolation: isolate;">
          <path d="M695.3,670.2l-4.5-8.8c-.4-.8-.7-1.5-1-2.3l4.5,8.8c.3.8.6,1.6,1,2.3" style="fill: #171844;"/>
        </g>
      </g>
    </g>
    <g style="isolation: isolate;">
      <g style="clip-path: url(#clippath-38);">
        <g style="isolation: isolate;">
          <path d="M694.3,667.9l-4.5-8.8c-1.2-3.5-1.8-7.3-1.6-11.4.2-4.1.9-9.1,2.1-14.8l4.5,8.8c-1.2,5.7-1.9,10.6-2.1,14.8-.2,4.1.4,7.9,1.6,11.4" style="fill: #171844;"/>
        </g>
      </g>
    </g>
    <g style="isolation: isolate;">
      <g style="clip-path: url(#clippath-39);">
        <g style="isolation: isolate;">
          <path d="M699.6,636.4l-4.5-8.8c.5,0,.9-.1,1.3-.1l4.5,8.8c-.4,0-.9,0-1.3.1" style="fill: #1c1d51;"/>
          <path d="M700.9,636.2l-4.5-8.8c.5,0,.9,0,1.4,0l4.5,8.8c-.4,0-.9,0-1.4,0" style="fill: #1d1d54;"/>
          <path d="M702.3,636.2l-4.5-8.8c.4,0,.8,0,1.1.2l4.5,8.8c-.4,0-.7-.1-1.1-.2" style="fill: #1e1e56;"/>
          <path d="M703.4,636.4l-4.5-8.8c.5.1.9.3,1.3.5.3.2.5.4.8.7l4.5,8.8c-.3-.3-.5-.5-.8-.7-.4-.2-.8-.4-1.3-.5" style="fill: #1f1f59;"/>
          <path d="M705.6,637.7l-4.5-8.8c.3.3.5.6.8,1l4.5,8.8c-.2-.4-.5-.7-.8-1" style="fill: #1e1e56;"/>
          <path d="M706.3,638.7l-4.5-8.8c.2.3.4.6.6,1l4.5,8.8c-.2-.4-.4-.7-.6-1" style="fill: #1d1d54;"/>
        </g>
      </g>
    </g>
    <g style="isolation: isolate;">
      <g style="clip-path: url(#clippath-40);">
        <g style="isolation: isolate;">
          <path d="M667.6,684.4l-4.5-8.8c-.7-1.3-1.3-2.7-1.8-4.2-1.3-3.5-1.5-7.9-.6-13,.9-5.2,2.5-10.3,5-15.4,2.5-5.1,5.5-9.6,9-13.5,1.4-1.5,2.8-2.8,4.2-3.9l4.5,8.8c-1.4,1.1-2.8,2.4-4.2,3.9-3.5,3.9-6.5,8.4-9,13.5-2.5,5.1-4.1,10.2-5,15.4-.9,5.2-.6,9.5.6,13,.5,1.5,1.1,2.9,1.8,4.2" style="fill: #171844;"/>
          <path d="M683.3,634.4l-4.5-8.8c1.1-.9,2.2-1.6,3.3-2.3l4.5,8.8c-1.1.6-2.2,1.4-3.3,2.3" style="fill: #181947;"/>
          <path d="M686.6,632.1l-4.5-8.8c.8-.5,1.6-.9,2.4-1.2l4.5,8.8c-.8.3-1.6.7-2.4,1.2" style="fill: #191a49;"/>
          <path d="M689,630.9l-4.5-8.8c.3-.1.7-.3,1-.4.5-.2,1-.4,1.5-.5l4.5,8.8c-.5.1-1,.3-1.5.5-.3.1-.7.2-1,.4" style="fill: #1a1b4c;"/>
          <path d="M691.5,630l-4.5-8.8c.7-.2,1.3-.4,2-.5l4.5,8.8c-.6.1-1.3.3-2,.5" style="fill: #1b1c4f;"/>
          <path d="M693.5,629.5l-4.5-8.8c.1,0,.3,0,.4,0,.4,0,.7,0,1.1-.1l4.5,8.8c-.3,0-.7,0-1.1.1s-.3,0-.4,0" style="fill: #1c1d51;"/>
          <path d="M695,629.3l-4.5-8.8c.4,0,.9,0,1.3,0l4.5,8.8c-.4,0-.8,0-1.3,0" style="fill: #1d1d54;"/>
          <path d="M696.2,629.3l-4.5-8.8c.2,0,.3,0,.5,0,.2,0,.5,0,.7.1l4.5,8.8c-.2,0-.4,0-.7-.1-.2,0-.3,0-.5,0" style="fill: #1e1e56;"/>
          <path d="M697.4,629.5l-4.5-8.8c.9.2,1.5.6,2,1.1l4.5,8.8c-.5-.5-1.2-.9-2-1.1" style="fill: #1f1f59;"/>
          <path d="M699.4,630.6l-4.5-8.8c.1.1.3.3.4.5l4.5,8.8c-.1-.2-.2-.3-.4-.5" style="fill: #1e1e56;"/>
          <path d="M699.8,631.1l-4.5-8.8c0,0,.1.2.2.3l4.5,8.8c0-.1-.1-.2-.2-.3" style="fill: #1d1d54;"/>
        </g>
      </g>
    </g>
    <path d="M719.9,657l2,5.5c-2.5,4.7-4.7,7.9-6.6,9.9-1.9,1.9-4.9,3.5-9.2,4.9-4.3,11.1-9.2,17.7-14.8,19.8-1,.4-1.9.6-2.9.7-2.2.3-4.5.1-6.8-.6-3.3-1.1-6.4-3.1-9.2-6.1-2.8-3-5-6.6-6.5-10.9-1.3-3.5-1.5-7.9-.6-13,.9-5.2,2.5-10.3,5-15.4,2.5-5.1,5.5-9.6,9-13.5,3.5-3.9,7.1-6.5,10.8-7.8,1.4-.5,2.7-.9,3.9-1s2-.2,2.8,0c1.8.2,3,1.1,3.5,2.5.4,1.1.2,2.6-.6,4.5,2.3-.3,4-.1,5.2.6,1.2.7,2.2,2.4,3.2,5.1.9,2.6,1.5,6.2,1.7,10.7.2,4.5-.2,8.9-1.1,13.2l2,.9,1.3-.5c1-.3,1.8-.9,2.6-1.7.8-.8,1.4-1.6,2-2.4.5-.8,1.7-2.5,3.6-5.3ZM694.3,667.9c-1.2-3.5-1.8-7.3-1.6-11.4.2-4.1.9-9.1,2.1-14.8-3.7,4.5-6.8,8.4-9.3,11.8-2.5,3.4-4.5,6.7-6,9.9-1.5,3.1-2.2,6-2.2,8.6.8,6.7,1.3,10.3,1.5,10.7,1,2.8,3.2,4,6.5,3.5s2.1-.4,3.3-.9c2.4-.9,5.7-4.4,10-10.6-1.9-2.2-3.2-4.5-4.1-6.9" style="fill: #26276e;"/>
  </g>
  <g style="isolation: isolate;">
    <g style="isolation: isolate;">
      <g style="clip-path: url(#clippath-41);">
        <g style="isolation: isolate;">
          <path d="M637.1,697.9l-4.5-8.8c.1.3.3.5.4.7l4.5,8.8c-.1-.2-.3-.5-.4-.7" style="fill: #1d1d54;"/>
          <path d="M637.5,698.7l-4.5-8.8c.2.3.4.6.7.9l4.5,8.8c-.2-.3-.5-.5-.7-.9" style="fill: #1e1e56;"/>
          <path d="M638.2,699.5l-4.5-8.8c.6.6,1.3,1.1,2,1.2l4.5,8.8c-.8-.2-1.4-.6-2-1.2" style="fill: #1f1f59;"/>
          <path d="M640.2,700.8l-4.5-8.8c.2,0,.4,0,.7.1l4.5,8.8c-.2,0-.4,0-.7-.1" style="fill: #1e1e56;"/>
          <path d="M640.9,700.9l-4.5-8.8c.2,0,.4,0,.6,0l4.5,8.8c-.2,0-.4,0-.6,0" style="fill: #1d1d54;"/>
          <path d="M641.4,700.9l-4.5-8.8c.1,0,.3,0,.4,0s.1,0,.2,0l4.5,8.8c0,0-.1,0-.2,0-.1,0-.3,0-.4,0" style="fill: #1c1d51;"/>
          <path d="M642,700.8l-4.5-8.8c.2,0,.5,0,.7-.2l4.5,8.8c-.2,0-.5.1-.7.2" style="fill: #1b1c4f;"/>
          <path d="M642.7,700.7l-4.5-8.8c.1,0,.3,0,.4-.1.1,0,.2,0,.3-.1l4.5,8.8c-.1,0-.2,0-.3.1-.1,0-.3.1-.4.1" style="fill: #1a1b4c;"/>
          <path d="M643.5,700.4l-4.5-8.8c.3-.1.6-.3.9-.5l4.5,8.8c-.3.2-.6.3-.9.5" style="fill: #191a49;"/>
          <path d="M644.4,699.9l-4.5-8.8c.5-.3,1-.6,1.5-1l4.5,8.8c-.5.4-1,.8-1.5,1" style="fill: #181947;"/>
          <path d="M645.9,698.9l-4.5-8.8c1.4-1.1,2.9-2.7,4.4-4.8,2.7-3.5,6.1-8.6,10.2-15.3l4.5,8.8c-4.1,6.7-7.5,11.9-10.2,15.3-1.6,2.1-3.1,3.7-4.4,4.8" style="fill: #171844;"/>
        </g>
      </g>
    </g>
    <polygon points="618.7 701.5 614.2 692.7 612.1 687 616.6 695.8 618.7 701.5" style="fill: #171742;"/>
    <g style="isolation: isolate;">
      <g style="clip-path: url(#clippath-42);">
        <g style="isolation: isolate;">
          <path d="M626.2,715.5l-4.5-8.8c-.3-.6-.6-1.3-.8-2-.7-2-1.2-4.6-1.3-7.7-.1-3.1,0-7.9.1-14.4l4.5,8.8c-.2,6.5-.3,11.3-.1,14.4.1,3.1.6,5.7,1.3,7.7.3.7.5,1.4.8,2" style="fill: #171844;"/>
        </g>
      </g>
    </g>
    <g style="isolation: isolate;">
      <g style="clip-path: url(#clippath-43);">
        <g style="isolation: isolate;">
          <path d="M616.6,695.8l-4.5-8.8c4.2-7,8.3-18.1,12.3-33.3l4.5,8.8c-4,15.2-8.1,26.3-12.3,33.3" style="fill: #171844;"/>
        </g>
      </g>
    </g>
    <g style="isolation: isolate;">
      <g style="clip-path: url(#clippath-44);">
        <g style="isolation: isolate;">
          <path d="M613.4,669.2l-4.5-8.8s0,0,0-.1c-.7-1.8-.5-5,.5-9.4l4.5,8.8c-1,4.5-1.2,7.6-.5,9.4,0,0,0,0,0,.1" style="fill: #171844;"/>
        </g>
      </g>
    </g>
    <g style="isolation: isolate;">
      <g style="clip-path: url(#clippath-45);">
        <g style="isolation: isolate;">
          <path d="M647.2,635.9l-4.5-8.8c2-.5,3.8-.9,5.3-1.3,1.6-.4,2.8-.7,3.7-.9l4.5,8.8c-.9.2-2.1.5-3.7.9-1.5.4-3.3.8-5.3,1.3" style="fill: #1b1c4f;"/>
        </g>
      </g>
    </g>
    <polygon points="631.5 641.2 627 632.4 630.7 631 635.2 639.8 631.5 641.2" style="fill: #1b1c4f;"/>
    <g style="isolation: isolate;">
      <g style="clip-path: url(#clippath-46);">
        <g style="isolation: isolate;">
          <path d="M613.9,659.7l-4.5-8.8c.8-3.8,1.7-6.7,2.8-8.8s2-3,3.5-4.2l4.5,8.8c-1.5,1.2-2.6,2.6-3.5,4.2s-2.1,5-2.8,8.8" style="fill: #171844;"/>
          <path d="M620.2,646.7l-4.5-8.8c.5-.4,1-.7,1.5-1.1.2-.1.5-.3.7-.4l4.5,8.8c-.3.2-.5.3-.7.4-.5.3-1,.7-1.5,1.1" style="fill: #181947;"/>
          <path d="M622.5,645.2l-4.5-8.8c1.3-.8,2.9-1.5,4.8-2.4l4.5,8.8c-1.9.8-3.5,1.6-4.8,2.4" style="fill: #191a49;"/>
          <path d="M627.3,642.8l-4.5-8.8c1.3-.5,2.7-1.1,4.3-1.7l4.5,8.8c-1.6.6-3,1.1-4.3,1.7" style="fill: #1a1b4c;"/>
        </g>
      </g>
    </g>
    <g style="isolation: isolate;">
      <g style="clip-path: url(#clippath-47);">
        <g style="isolation: isolate;">
          <path d="M649,618.8l-4.5-8.8c.2,0,.4,0,.5,0l4.5,8.8c-.2,0-.4,0-.5,0" style="fill: #1c1d51;"/>
          <path d="M649.5,618.7l-4.5-8.8c.2,0,.4,0,.6,0l4.5,8.8c-.2,0-.4,0-.6,0" style="fill: #1d1d54;"/>
          <path d="M650.1,618.7l-4.5-8.8c.2,0,.3,0,.5,0l4.5,8.8c-.2,0-.3,0-.5,0" style="fill: #1e1e56;"/>
          <path d="M650.6,618.8l-4.5-8.8c.4,0,.7.3.9.5l4.5,8.8c-.2-.2-.5-.4-.9-.5" style="fill: #1f1f59;"/>
          <path d="M651.4,619.3l-4.5-8.8c0,0,.1.1.2.2l4.5,8.8c0,0-.1-.1-.2-.2" style="fill: #1e1e56;"/>
          <path d="M651.6,619.5l-4.5-8.8s0,0,0,.1l4.5,8.8s0,0,0-.1" style="fill: #1d1d54;"/>
        </g>
      </g>
    </g>
    <g style="isolation: isolate;">
      <g style="clip-path: url(#clippath-48);">
        <g style="isolation: isolate;">
          <path d="M635.2,639.8l-4.5-8.8c1.1-6.3,2.5-11,4.1-14.1.9-1.7,2.1-3.1,3.4-4.2l4.5,8.8c-1.4,1.1-2.5,2.5-3.4,4.2-1.6,3.1-3,7.7-4.1,14.1" style="fill: #171844;"/>
          <path d="M642.7,621.5l-4.5-8.8c.5-.4,1-.7,1.5-1.1l4.5,8.8c-.5.3-1.1.7-1.5,1.1" style="fill: #181947;"/>
          <path d="M644.3,620.5l-4.5-8.8c.5-.3.9-.5,1.4-.7l4.5,8.8c-.5.2-1,.5-1.4.7" style="fill: #191a49;"/>
          <path d="M645.7,619.8l-4.5-8.8c.2,0,.4-.2.7-.3.4-.1.7-.3,1.1-.4l4.5,8.8c-.3.1-.7.2-1.1.4-.2,0-.5.2-.7.3" style="fill: #1a1b4c;"/>
          <path d="M647.5,619.1l-4.5-8.8c.5-.1.9-.2,1.3-.3l4.5,8.8c-.4,0-.8.2-1.3.3" style="fill: #1b1c4f;"/>
          <path d="M648.7,618.8l-4.5-8.8c0,0,.2,0,.2,0l4.5,8.8c0,0-.2,0-.2,0" style="fill: #1c1d51;"/>
        </g>
      </g>
    </g>
    <path d="M649,618.8c1.5-.2,2.5.1,2.8,1.1.2.7-.3,2.9-1.7,6.7-1.4,3.8-2.3,6.9-2.8,9.4,2-.5,3.8-.9,5.3-1.3,1.6-.4,2.8-.7,3.7-.9-1.1,7-3,14.4-5.7,22.3-1.6.5-3,.9-4.1,1.2-1.1.3-2.2.6-3.3.9s-2.5.7-4.1,1.2c-1.3,5.9-2.3,11.1-3,15.6-.7,4.5-1,8.5-1,12.1,0,3.5.5,6.7,1.6,9.5,1.2,3.2,3,4.7,5.4,4.3s.8-.2,1.3-.3c2.1-.8,4.5-2.9,7.2-6.4,2.7-3.5,6.1-8.6,10.2-15.3l2,5.5c-9.4,21.7-17.8,33.8-25,36.5-.6.2-1.2.4-1.9.5-1.9.3-3.6,0-5.3-1.1-2.2-1.4-3.9-3.5-5-6.6-.7-2-1.2-4.6-1.3-7.7-.1-3.1,0-7.9.1-14.4-.6,1-1.1,1.9-1.5,2.8-.5.9-.9,1.7-1.3,2.4-.4.7-.8,1.5-1.3,2.3-.5.8-.9,1.7-1.4,2.5l-2-5.7c4.2-7,8.3-18.1,12.3-33.3-.9.3-1.7.5-2.4.7-.7.2-1.6.5-2.6.9-3.3,1.2-5.7,2.3-7.2,3.4-.6.4-1.2.8-1.7,1.2-.5.4-.9.6-1.1.7-.3,0-.4,0-.5-.4-.7-1.8-.5-5,.5-9.4.8-3.8,1.7-6.7,2.8-8.8s2.8-3.8,5-5.2c2.2-1.4,5.5-2.9,9.8-4.5l3.6-1.3c1.1-6.3,2.5-11,4.1-14.1,1.6-3.1,4-5.2,7.1-6.3,1-.4,1.8-.6,2.6-.7Z" style="fill: #26276e;"/>
  </g>
  <g style="isolation: isolate;">
    <g style="isolation: isolate;">
      <g style="clip-path: url(#clippath-49);">
        <g style="isolation: isolate;">
          <path d="M585.7,713.1l-4.5-8.8c.1.2.2.4.3.6l4.5,8.8c-.1-.2-.2-.4-.3-.6" style="fill: #1d1d54;"/>
          <path d="M586.1,713.7l-4.5-8.8c.2.3.4.6.7.9l4.5,8.8c-.3-.3-.5-.6-.7-.9" style="fill: #1e1e56;"/>
          <path d="M586.7,714.6l-4.5-8.8c.7.8,1.6,1.3,2.6,1.7.3.1.6.2,1,.3l4.5,8.8c-.3,0-.6-.2-1-.3-1.1-.4-1.9-1-2.6-1.7" style="fill: #1f1f59;"/>
          <path d="M590.3,716.6l-4.5-8.8c.4.1.9.2,1.3.2l4.5,8.8c-.5,0-.9-.1-1.3-.2" style="fill: #1e1e56;"/>
          <path d="M591.7,716.8l-4.5-8.8c.4,0,.8,0,1.1,0l4.5,8.8c-.4,0-.8,0-1.1,0" style="fill: #1d1d54;"/>
          <path d="M592.8,716.8l-4.5-8.8c.3,0,.5,0,.8,0s.2,0,.3,0l4.5,8.8c-.1,0-.2,0-.3,0-.3,0-.6,0-.8,0" style="fill: #1c1d51;"/>
          <path d="M594,716.7l-4.5-8.8c.4,0,.8-.2,1.2-.3l4.5,8.8c-.4.1-.8.2-1.2.3" style="fill: #1b1c4f;"/>
          <path d="M595.2,716.4l-4.5-8.8c.3,0,.5-.2.8-.3.2,0,.4-.2.6-.2l4.5,8.8c-.2,0-.4.2-.6.2-.3,0-.5.2-.8.3" style="fill: #1a1b4c;"/>
          <path d="M596.6,715.9l-4.5-8.8c.5-.2,1-.5,1.5-.7l4.5,8.8c-.5.3-1,.5-1.5.7" style="fill: #191a49;"/>
          <path d="M598.1,715.1l-4.5-8.8c.7-.4,1.4-.9,2-1.4l4.5,8.8c-.7.5-1.4,1-2,1.4" style="fill: #181947;"/>
          <path d="M600.1,713.7l-4.5-8.8c1.2-1,2.4-2.2,3.6-3.7,2.5-3.1,5.5-7.6,9.1-13.6l4.5,8.8c-3.6,6-6.6,10.6-9.1,13.6-1.2,1.5-2.4,2.7-3.6,3.7" style="fill: #171844;"/>
        </g>
      </g>
    </g>
    <g style="isolation: isolate;">
      <g style="clip-path: url(#clippath-50);">
        <g style="isolation: isolate;">
          <path d="M575.4,720.6l-4.5-8.8c-.8-1.6-1.5-3.2-2.1-5-.8-2.1-1.3-4.3-1.5-6.4-.3-2.1-.3-3.9-.1-5.4.2-1.5.6-3.9,1.3-7.2l4.5,8.8c-.7,3.3-1.2,5.7-1.3,7.2-.2,1.5-.1,3.3.1,5.4.2,2.1.7,4.2,1.5,6.4.6,1.7,1.3,3.4,2.1,5" style="fill: #171844;"/>
        </g>
      </g>
    </g>
    <g style="isolation: isolate;">
      <g style="clip-path: url(#clippath-51);">
        <g style="isolation: isolate;">
          <path d="M573,696.7l-4.5-8.8c2.9-12.1,6.8-20.2,11.7-24.1l4.5,8.8c-4.9,3.9-8.8,12-11.7,24.1" style="fill: #171844;"/>
          <path d="M584.7,672.5l-4.5-8.8c.6-.5,1.2-.9,1.8-1.2l4.5,8.8c-.6.3-1.2.8-1.8,1.2" style="fill: #181947;"/>
          <path d="M586.5,671.3l-4.5-8.8c.4-.3.9-.5,1.4-.7l4.5,8.8c-.5.2-.9.4-1.4.7" style="fill: #191a49;"/>
          <path d="M587.8,670.6l-4.5-8.8c.2,0,.4-.2.6-.2.3,0,.5-.2.8-.3l4.5,8.8c-.3,0-.5.2-.8.3-.2,0-.4.1-.6.2" style="fill: #1a1b4c;"/>
          <path d="M589.2,670.1l-4.5-8.8c.4-.1.7-.2,1-.3l4.5,8.8c-.3,0-.7.1-1,.3" style="fill: #1b1c4f;"/>
          <path d="M590.2,669.9l-4.5-8.8c0,0,.2,0,.2,0,.2,0,.4,0,.6,0l4.5,8.8c-.2,0-.4,0-.6,0s-.2,0-.2,0" style="fill: #1c1d51;"/>
          <path d="M591,669.8l-4.5-8.8c.2,0,.5,0,.7,0l4.5,8.8c-.2,0-.5,0-.7,0" style="fill: #1d1d54;"/>
          <path d="M591.7,669.8l-4.5-8.8c.2,0,.5,0,.7.1l4.5,8.8c-.2,0-.5,0-.7-.1" style="fill: #1e1e56;"/>
          <path d="M592.4,669.9l-4.5-8.8c.6.2,1.2.5,1.6,1l4.5,8.8c-.4-.5-1-.8-1.6-1" style="fill: #1f1f59;"/>
          <path d="M594,670.9l-4.5-8.8c.1.2.3.3.4.5l4.5,8.8c-.1-.2-.3-.4-.4-.5" style="fill: #1e1e56;"/>
          <path d="M594.4,671.4l-4.5-8.8c0,.1.1.2.2.4l4.5,8.8c0-.1-.1-.3-.2-.4" style="fill: #1d1d54;"/>
        </g>
      </g>
    </g>
    <path d="M612.8,696.4l2.2,6c-3,8.9-6.2,15.9-9.7,21.1-3.5,5.2-6.9,8.4-10.2,9.7-.8.3-1.7.5-2.5.6-3.7.5-7.1-.8-10.3-4-3.9-3.9-6.9-8.7-8.9-14.3-.8-2.1-1.3-4.3-1.5-6.4-.3-2.1-.3-3.9-.1-5.4.2-1.5.6-3.9,1.3-7.2,3.6-15.1,8.8-23.8,15.4-26.3.7-.3,1.4-.5,2.1-.5,2.3-.3,3.8.5,4.5,2.5.6,1.8.5,4.9-.4,9.5-.9,4.6-1.9,7.9-3.1,10.2-3.2,6.4-5.3,10.8-6.1,13.2-.8,2.4-.8,4.7,0,7,.7,2,2.1,3.4,4.1,4.1,1.3.5,2.7.7,4.3.4s1.5-.3,2.4-.6c2.6-1,5.2-3,7.7-6,2.5-3.1,5.5-7.6,9.1-13.6Z" style="fill: #26276e;"/>
  </g>
  <g style="isolation: isolate;">
    <path d="M589.3,661.6c-1.6-.6-2.7-1.7-3.3-3.3-.9-2.4-.6-5.5.7-9.4,1.3-3.8,3.2-6.2,5.7-7.1.5-.2,1-.3,1.5-.4,1.1-.2,2.2,0,3.2.4,1.5.6,2.6,1.9,3.3,3.8.8,2.4.6,5.4-.7,9.1-1.3,3.7-3.3,6-5.9,7-.4.1-.8.2-1.2.3-1.1.2-2.2,0-3.4-.4Z" style="fill: #26276e;"/>
    <g style="isolation: isolate;">
      <g style="clip-path: url(#clippath-52);">
        <g style="isolation: isolate;">
          <path d="M586.3,659l-4.5-8.8c-.1-.2-.2-.5-.3-.7-.9-2.4-.6-5.5.7-9.4.9-2.7,2.2-4.7,3.7-6l4.5,8.8c-1.6,1.3-2.8,3.3-3.7,6-1.3,3.8-1.5,7-.7,9.4,0,.2.2.5.3.7" style="fill: #171844;"/>
          <path d="M590.4,643l-4.5-8.8c.3-.2.6-.4.9-.6l4.5,8.8c-.3.2-.6.4-.9.6" style="fill: #181947;"/>
          <path d="M591.3,642.3l-4.5-8.8c.3-.1.5-.3.8-.4l4.5,8.8c-.3.1-.5.2-.8.4" style="fill: #191a49;"/>
          <path d="M592,641.9l-4.5-8.8c.1,0,.2,0,.3-.1.2,0,.3-.1.5-.2l4.5,8.8c-.2,0-.3.1-.5.2-.1,0-.2,0-.3.1" style="fill: #1a1b4c;"/>
          <path d="M592.9,641.6l-4.5-8.8c.3,0,.6-.2.8-.2l4.5,8.8c-.3,0-.6.1-.8.2" style="fill: #1b1c4f;"/>
          <path d="M593.7,641.4l-4.5-8.8c0,0,.1,0,.2,0,.2,0,.4,0,.6,0l4.5,8.8c-.2,0-.4,0-.6,0s-.1,0-.2,0" style="fill: #1c1d51;"/>
          <path d="M594.5,641.3l-4.5-8.8c.3,0,.5,0,.8,0l4.5,8.8c-.3,0-.5,0-.8,0" style="fill: #1d1d54;"/>
          <path d="M595.3,641.4l-4.5-8.8c.3,0,.7,0,1,.2l4.5,8.8c-.3,0-.7-.1-1-.2" style="fill: #1e1e56;"/>
          <path d="M596.3,641.5l-4.5-8.8c.3,0,.6.2.9.3.7.3,1.3.7,1.8,1.3l4.5,8.8c-.5-.6-1.1-1-1.8-1.3-.3-.1-.6-.2-.9-.3" style="fill: #1f1f59;"/>
          <path d="M599,643l-4.5-8.8c.2.3.4.5.6.8l4.5,8.8c-.2-.3-.4-.6-.6-.8" style="fill: #1e1e56;"/>
          <path d="M599.6,643.9l-4.5-8.8c.1.2.2.4.4.6l4.5,8.8c-.1-.2-.2-.4-.4-.6" style="fill: #1d1d54;"/>
        </g>
      </g>
    </g>
  </g>
  <g style="isolation: isolate;">
    <g style="isolation: isolate;">
      <g style="clip-path: url(#clippath-53);">
        <g style="isolation: isolate;">
          <path d="M822.9,478.4l-4.5-8.8c0,0,0,.1.1.2l4.5,8.8c0,0,0-.1-.1-.2" style="fill: #9d9d9d;"/>
          <path d="M823,478.6l-4.5-8.8c0,0,.1.2.2.3l4.5,8.8c0,0-.2-.2-.2-.3" style="fill: #a2a2a2;"/>
          <path d="M823.2,478.8l-4.5-8.8c.3.3.8.6,1.4.7l4.5,8.8c-.6-.1-1-.4-1.4-.7" style="fill: #a7a7a7;"/>
          <path d="M824.6,479.6l-4.5-8.8c.3,0,.6.1.9.1l4.5,8.8c-.3,0-.6,0-.9-.1" style="fill: #a2a2a2;"/>
          <path d="M825.5,479.7l-4.5-8.8c.4,0,.8,0,1.2,0l4.5,8.8c-.4,0-.8,0-1.2,0" style="fill: #9d9d9d;"/>
          <path d="M826.7,479.7l-4.5-8.8c.4,0,.8,0,1.3-.1s.4,0,.6,0l4.5,8.8c-.2,0-.4,0-.6,0-.4,0-.9.1-1.3.1" style="fill: #999;"/>
          <path d="M828.6,479.5l-4.5-8.8c1-.2,2.2-.5,3.5-.9l4.5,8.8c-1.3.4-2.5.7-3.5.9" style="fill: #949494;"/>
          <path d="M832.1,478.6l-4.5-8.8c1.1-.3,2.4-.8,3.7-1.2,1.2-.5,2.5-.9,3.7-1.5l4.5,8.8c-1.2.5-2.5,1-3.7,1.5-1.3.5-2.6.9-3.7,1.2" style="fill: #8f8f8f;"/>
          <path d="M839.5,475.9l-4.5-8.8c3.1-1.3,6.1-2.8,9-4.6l4.5,8.8c-3,1.7-6,3.3-9,4.6" style="fill: #8a8a8a;"/>
          <path d="M848.5,471.4l-4.5-8.8c4-2.3,7.9-5.1,11.8-8.2l4.5,8.8c-3.9,3.1-7.8,5.8-11.8,8.2" style="fill: #858585;"/>
          <path d="M860.3,463.2l-4.5-8.8c2.8-2.2,5.5-4.7,8.2-7.3,10.4-10.1,18.4-20.5,24.1-31.2,5.7-10.7,7.6-18.4,5.9-23.3-.2-.5-.4-.9-.6-1.3l4.5,8.8c.2.4.4.9.6,1.3,1.7,4.8-.3,12.6-5.9,23.3-5.7,10.7-13.7,21.1-24.1,31.2-2.7,2.6-5.4,5-8.2,7.3" style="fill: gray;"/>
        </g>
      </g>
    </g>
    <g style="isolation: isolate;">
      <g style="clip-path: url(#clippath-54);">
        <g style="isolation: isolate;">
          <path d="M807.4,505.5l-4.5-8.8c-.7-1.3-1.3-2.8-1.9-4.4-1.5-4.3-2-8.1-1.3-11.5.7-3.4,2.5-7,5.6-10.9,3.3-4.3,6.9-7.9,10.7-11l4.5,8.8c-3.9,3.1-7.4,6.8-10.7,11-3,3.9-4.9,7.5-5.6,10.9-.7,3.4-.3,7.2,1.3,11.5.6,1.6,1.2,3.1,1.9,4.4" style="fill: gray;"/>
          <path d="M820.5,467.7l-4.5-8.8c2.2-1.8,4.6-3.4,7-4.9l4.5,8.8c-2.4,1.4-4.8,3-7,4.9" style="fill: #858585;"/>
          <path d="M827.5,462.8l-4.5-8.8c2-1.2,4.1-2.2,6.2-3.1l4.5,8.8c-2.1.9-4.2,1.9-6.2,3.1" style="fill: #8a8a8a;"/>
          <path d="M833.7,459.7l-4.5-8.8c.9-.4,1.8-.7,2.7-1.1.1,0,.2,0,.3,0l4.5,8.8c0,0-.2,0-.3,0-.9.3-1.8.7-2.7,1.1" style="fill: #8f8f8f;"/>
          <path d="M836.8,458.6l-4.5-8.8c.1,0,.2,0,.4,0l4.5,8.8c-.1,0-.2,0-.4,0" style="fill: #949494;"/>
          <path d="M837.1,458.5l-4.5-8.8s0,0,0,0c0,0,.1,0,.2,0l4.5,8.8c0,0-.1,0-.2,0s0,0,0,0" style="fill: #999;"/>
          <path d="M837.4,458.4l-4.5-8.8c0,0,.2,0,.2,0l4.5,8.8c0,0-.1,0-.2,0" style="fill: #9d9d9d;"/>
          <path d="M837.6,458.4l-4.5-8.8c0,0,.1,0,.2,0l4.5,8.8c0,0-.1,0-.2,0" style="fill: #a2a2a2;"/>
          <path d="M837.8,458.5l-4.5-8.8c.2,0,.3.1.5.3l4.5,8.8c-.1-.1-.3-.2-.5-.3" style="fill: #a7a7a7;"/>
          <path d="M838.3,458.7l-4.5-8.8s0,0,.1.1l4.5,8.8c0,0,0,0-.1-.1" style="fill: #a2a2a2;"/>
          <path d="M838.4,458.9l-4.5-8.8s0,0,0,0l4.5,8.8s0,0,0,0" style="fill: #9d9d9d;"/>
        </g>
      </g>
    </g>
    <g style="isolation: isolate;">
      <g style="clip-path: url(#clippath-55);">
        <g style="isolation: isolate;">
          <path d="M809.3,405.8l-4.5-8.8c-.2-.3-.3-.7-.5-1l4.5,8.8c.1.3.3.7.5,1" style="fill: gray;"/>
        </g>
      </g>
    </g>
    <g style="isolation: isolate;">
      <g style="clip-path: url(#clippath-56);">
        <g style="isolation: isolate;">
          <path d="M826,396.9l-4.5-8.8c9.7-7.7,18.1-13.7,25.2-17.8l4.5,8.8c-7,4.1-15.4,10-25.2,17.8" style="fill: #858585;"/>
          <path d="M851.1,379.2l-4.5-8.8c3.1-1.8,5.9-3.2,8.5-4.3l4.5,8.8c-2.6,1.1-5.4,2.5-8.5,4.3" style="fill: #8a8a8a;"/>
          <path d="M859.6,374.8l-4.5-8.8c.8-.3,1.5-.6,2.3-.9,1.2-.4,2.4-.8,3.5-1.2l4.5,8.8c-1.2.3-2.3.7-3.5,1.2-.7.3-1.5.6-2.3.9" style="fill: #8f8f8f;"/>
          <path d="M865.4,372.8l-4.5-8.8c1.9-.6,3.7-1,5.5-1.3l4.5,8.8c-1.8.3-3.6.8-5.5,1.3" style="fill: #949494;"/>
          <path d="M870.9,371.4l-4.5-8.8c.4,0,.9-.2,1.3-.2,1.2-.2,2.4-.3,3.5-.4l4.5,8.8c-1.2,0-2.3.2-3.5.4s-.9.1-1.3.2" style="fill: #999;"/>
          <path d="M875.8,370.9l-4.5-8.8c1.6,0,3.2,0,4.7,0l4.5,8.8c-1.5-.1-3.1-.1-4.7,0" style="fill: #9d9d9d;"/>
          <path d="M880.5,370.9l-4.5-8.8c1.8.1,3.6.4,5.3.8l4.5,8.8c-1.7-.4-3.5-.7-5.3-.8" style="fill: #a2a2a2;"/>
          <path d="M885.8,371.7l-4.5-8.8c2,.5,3.8,1.1,5.7,2,3.6,1.7,6.8,4,9.6,7.1l4.5,8.8c-2.8-3.1-6-5.4-9.6-7.1-1.8-.9-3.7-1.5-5.7-2" style="fill: #a7a7a7;"/>
          <path d="M901.1,380.8l-4.5-8.8c1.5,1.6,2.8,3.4,4.1,5.3l4.5,8.8c-1.3-2-2.6-3.7-4.1-5.3" style="fill: #a2a2a2;"/>
          <path d="M905.2,386.1l-4.5-8.8c.8,1.3,1.6,2.6,2.3,4l4.5,8.8c-.7-1.4-1.5-2.8-2.3-4" style="fill: #9d9d9d;"/>
        </g>
      </g>
    </g>
    <path d="M905.9,295.8c-1.1,9.9-2.4,18.4-4.1,25.3-1.7,6.9-3.1,11-4.4,12.2-2.2,1.6-11.1,5.3-26.8,11-14.5,5.3-24.9,9-31.2,11.1-7.3,12.4-11.8,26.3-13.5,41.6,15.3-12.2,27.2-19.8,35.9-23,3.6-1.3,7.1-2.2,10.4-2.7,7-1,13.5-.2,19.2,2.5,8.5,4,14.9,11.8,19.1,23.6,5.4,15,5.2,30.2-.6,45.6-5.8,15.4-15.2,29.2-28.3,41.4-13.1,12.1-27.7,21.2-43.8,27.1-4.5,1.6-8.4,2.7-11.9,3.2s-6.7.4-9.2-.3c-4.9-1.4-8.6-5.8-11.3-13.3-1.5-4.3-2-8.1-1.3-11.5.7-3.4,2.5-7,5.6-10.9,7.4-9.6,16.3-16.3,26.7-20.1.3,0,.5-.2.7-.2.7-.1,1.1.1,1.3.7.1.4,0,.8-.7,1.5-.6.6-.9.9-1,1-10.3,8.6-15,14.1-14.1,16.6.5,1.4,2.2,1.9,5.2,1.4s4.6-1,7.8-2.2c11.4-4.2,22.3-11.3,32.7-21.5,10.4-10.1,18.4-20.5,24.1-31.2,5.7-10.7,7.6-18.4,5.9-23.3-1.3-3.6-4.1-5.8-8.3-6.7-2.1-.4-4.5-.4-7.2,0-2.7.4-5.6,1.2-8.9,2.4-6.3,2.3-11.9,4.9-16.6,7.9-4.8,2.9-10.1,6.5-16,10.6-5.9,4.1-9.6,6.5-11.2,7.1-.6.2-1.3.4-1.9.5-2.3.3-4.2-.4-5.8-2.1-1.9-1.8-3.8-3.5-5.6-5.3-1.8-1.7-3.5-3.6-5-5.7-1.5-2.1-2.6-3.8-3.3-5.3-1.5-21.6,6.6-49.2,24.3-82.6,16.2-5.1,28.6-9.3,37.2-12.4,12.5-4.6,24.4-9.3,35.7-14Z" style="fill: #cfcfcf;"/>
    <g style="isolation: isolate;">
      <g style="clip-path: url(#clippath-57);">
        <g style="isolation: isolate;">
          <path d="M808.8,404.8l-4.5-8.8c-1.5-21.6,6.6-49.2,24.3-82.6l4.5,8.8c-17.6,33.4-25.7,61-24.3,82.6" style="fill: gray;"/>
        </g>
      </g>
    </g>
    <g style="isolation: isolate;">
      <g style="clip-path: url(#clippath-58);">
        <g style="isolation: isolate;">
          <path d="M833.1,322.2l-4.5-8.8c16.2-5.1,28.6-9.3,37.2-12.4,12.5-4.6,24.4-9.3,35.7-14l4.5,8.8c-11.2,4.7-23.1,9.4-35.7,14-8.6,3.1-20.9,7.3-37.2,12.4" style="fill: #8f8f8f;"/>
        </g>
      </g>
    </g>
  </g>
  <g style="isolation: isolate;">
    <g style="isolation: isolate;">
      <g style="clip-path: url(#clippath-59);">
        <g style="isolation: isolate;">
          <path d="M698,518.1l-4.5-8.8c.4.8.9,1.6,1.3,2.3l4.5,8.8c-.5-.7-.9-1.5-1.3-2.3" style="fill: #9d9d9d;"/>
          <path d="M699.4,520.4l-4.5-8.8c.6,1,1.3,1.9,2,2.7l4.5,8.8c-.7-.8-1.4-1.7-2-2.7" style="fill: #a2a2a2;"/>
          <path d="M701.4,523.1l-4.5-8.8c1.7,1.8,3.5,2.9,5.5,3.4l4.5,8.8c-2-.5-3.8-1.6-5.5-3.4" style="fill: #a7a7a7;"/>
          <path d="M706.9,526.5l-4.5-8.8c.5.1,1.1.2,1.6.3l4.5,8.8c-.6,0-1.1-.1-1.6-.3" style="fill: #a2a2a2;"/>
          <path d="M708.5,526.8l-4.5-8.8c.5,0,.9,0,1.4,0l4.5,8.8c-.5,0-.9,0-1.4,0" style="fill: #9d9d9d;"/>
          <path d="M709.9,526.8l-4.5-8.8c.3,0,.7,0,1-.1s.2,0,.4,0l4.5,8.8c-.1,0-.2,0-.4,0-.3,0-.7,0-1,.1" style="fill: #999;"/>
          <path d="M711.3,526.6l-4.5-8.8c.5,0,1-.2,1.5-.4l4.5,8.8c-.5.2-1,.3-1.5.4" style="fill: #949494;"/>
          <path d="M712.8,526.2l-4.5-8.8c.3,0,.6-.2.9-.3.2,0,.4-.2.7-.3l4.5,8.8c-.2,0-.5.2-.7.3-.3.1-.6.2-.9.3" style="fill: #8f8f8f;"/>
          <path d="M714.4,525.6l-4.5-8.8c.7-.3,1.4-.6,2.1-1.1l4.5,8.8c-.7.4-1.4.8-2.1,1.1" style="fill: #8a8a8a;"/>
          <path d="M716.5,524.6l-4.5-8.8c1.2-.7,2.5-1.6,3.8-2.7l4.5,8.8c-1.3,1.1-2.6,2-3.8,2.7" style="fill: #858585;"/>
          <path d="M720.4,521.9l-4.5-8.8c3-2.4,6.4-5.8,10-10.1,6.6-7.8,13.1-17.5,19.4-29.1,6.1-11.2,10.7-23,13.9-35.4,3.2-12.3,4.8-24,5-34.9l4.5,8.8c-.1,10.9-1.8,22.6-5,34.9-3.2,12.4-7.8,24.2-13.9,35.4-6.3,11.7-12.8,21.4-19.4,29.1-3.7,4.3-7,7.7-10,10.1" style="fill: gray;"/>
        </g>
      </g>
    </g>
    <g style="isolation: isolate;">
      <g style="clip-path: url(#clippath-60);">
        <g style="isolation: isolate;">
          <path d="M768.7,412.4l-4.5-8.8c.1-10.9-1-19.8-3.5-26.6-.4-1.1-.8-2.2-1.3-3.1l4.5,8.8c.5.9.9,2,1.3,3.1,2.4,6.8,3.6,15.7,3.5,26.6" style="fill: gray;"/>
        </g>
      </g>
    </g>
    <polygon points="733.6 396.3 729.1 387.5 730.4 375.8 735 384.6 733.6 396.3" style="fill: #7b7b7b;"/>
    <g style="isolation: isolate;">
      <g style="clip-path: url(#clippath-61);">
        <g style="isolation: isolate;">
          <path d="M756.1,357.9l-4.5-8.8c0,0,.2,0,.3,0l4.5,8.8c0,0-.2,0-.3,0" style="fill: #9d9d9d;"/>
          <path d="M756.4,357.9l-4.5-8.8c1.2,0,2.4.3,3.5.5l4.5,8.8c-1.1-.3-2.3-.5-3.5-.5" style="fill: #a2a2a2;"/>
          <path d="M759.8,358.4l-4.5-8.8c3.5.8,6.5,2.6,9.2,5.3.2.2.3.3.5.5l4.5,8.8c-.2-.2-.3-.3-.5-.5-2.6-2.7-5.7-4.4-9.2-5.3" style="fill: #a7a7a7;"/>
          <path d="M769.5,364.2l-4.5-8.8c1,1.1,2,2.4,3,4l4.5,8.8c-1-1.5-2-2.9-3-4" style="fill: #a2a2a2;"/>
          <path d="M772.5,368.2l-4.5-8.8c.8,1.2,1.5,2.5,2.3,3.9l4.5,8.8c-.7-1.4-1.5-2.8-2.3-3.9" style="fill: #9d9d9d;"/>
        </g>
      </g>
    </g>
    <g style="isolation: isolate;">
      <g style="clip-path: url(#clippath-62);">
        <g style="isolation: isolate;">
          <path d="M677.2,520.5l-4.5-8.8c-1.5-2.9-2.8-6-4-9.3-4.9-13.8-6.3-29.7-4-47.7,2.3-18,7.2-35.4,14.8-52,7.5-16.6,16.6-30.6,27.2-42,3.2-3.4,6.3-6.4,9.5-8.9l4.5,8.8c-3.1,2.5-6.3,5.5-9.5,8.9-10.6,11.4-19.7,25.4-27.2,42-7.5,16.6-12.5,33.9-14.8,52-2.3,18-1,33.9,4,47.7,1.2,3.3,2.5,6.4,4,9.3" style="fill: gray;"/>
          <path d="M720.7,360.7l-4.5-8.8c2.5-2,5-3.7,7.4-5.2l4.5,8.8c-2.5,1.4-4.9,3.2-7.4,5.2" style="fill: #858585;"/>
          <path d="M728.1,355.5l-4.5-8.8c1.7-1,3.4-1.8,5-2.5l4.5,8.8c-1.7.7-3.4,1.6-5,2.5" style="fill: #8a8a8a;"/>
          <path d="M733.2,352.9l-4.5-8.8c1.4-.6,2.7-1.1,4.1-1.5l4.5,8.8c-1.4.4-2.7.9-4.1,1.5" style="fill: #8f8f8f;"/>
          <path d="M737.3,351.5l-4.5-8.8c1.2-.4,2.4-.7,3.6-.9l4.5,8.8c-1.2.2-2.4.5-3.6.9" style="fill: #949494;"/>
          <path d="M740.9,350.6l-4.5-8.8c.3,0,.7-.1,1-.2.6,0,1.1-.1,1.7-.2l4.5,8.8c-.5,0-1.1,0-1.7.2-.3,0-.7.1-1,.2" style="fill: #999;"/>
          <path d="M743.6,350.3l-4.5-8.8c.7,0,1.4,0,2.1,0l4.5,8.8c-.7,0-1.4,0-2.1,0" style="fill: #9d9d9d;"/>
          <path d="M745.7,350.3l-4.5-8.8c.8,0,1.5.2,2.2.3l4.5,8.8c-.7-.2-1.4-.3-2.2-.3" style="fill: #a2a2a2;"/>
          <path d="M747.9,350.6l-4.5-8.8c2.2.5,4.1,1.6,5.6,3.3l4.5,8.8c-1.6-1.7-3.4-2.8-5.6-3.3" style="fill: #a7a7a7;"/>
          <path d="M753.5,353.9l-4.5-8.8c.5.6,1.1,1.3,1.5,2l4.5,8.8c-.5-.7-1-1.4-1.5-2" style="fill: #a2a2a2;"/>
          <path d="M755,355.9l-4.5-8.8c.3.5.6,1,.9,1.5l4.5,8.8c-.3-.5-.6-1-.9-1.5" style="fill: #9d9d9d;"/>
        </g>
      </g>
    </g>
    <path d="M778.9,381.7c4.6,12.8,6.9,27.5,7,44.2,0,16.7-2.3,33.3-7.1,49.7-4.8,16.4-11.7,31.1-20.9,44-10.3,14.4-19.8,23.2-28.5,26.4-2.3.8-4.6,1.4-7,1.8-4.6.7-9.4.4-14.2-.8-7.4-1.8-14.2-5.8-20.3-11.9-6.2-6.1-11-14.1-14.6-24-4.9-13.8-6.3-29.7-4-47.7,2.3-18,7.2-35.4,14.8-52,7.5-16.6,16.6-30.6,27.2-42,10.5-11.3,20.7-17.7,30.7-19.1,6.7-1,11.4,1.5,14.2,7.5,5.1.3,9.3,2.2,12.9,5.8,3.5,3.6,6.8,9.6,9.8,18ZM768.7,412.4c.1-10.9-1-19.8-3.5-26.6-1.6-4.4-3.7-7.4-6.6-9.1-2.1-1.3-4.3-1.8-6.6-1.4s-1.4.3-2.1.5c-2.8,1-5.4,3.1-7.7,6.4-2.4,3.2-5.2,7.9-8.6,14.1l1.3-11.7c-4.5,4.7-8.4,9.2-11.6,13.3-3.2,4.2-6.7,9.6-10.4,16.4-3.7,6.8-7.2,14.9-10.6,24.3-5.3,15.6-8.4,29.9-9.3,43-.9,13.1.1,23.6,2.9,31.5,3.6,9.9,8.5,14.4,15,13.5s1.9-.4,2.8-.7c4.5-1.6,10-6.3,16.6-14.1,6.6-7.8,13.1-17.5,19.4-29.1,6.1-11.2,10.7-23,13.9-35.4,3.2-12.3,4.8-24,5-34.9" style="fill: #cfcfcf;"/>
  </g>
  <metadata>
    <sfw xmlns="http://ns.adobe.com/SaveForWeb/1.0/">
      <slices/>
      <sliceSourceBounds x="280.55" y="-809.28" width="633.95" height="594.33" bottomLeftOrigin="true"/>
    </sfw>
  </metadata>
</svg>